<svg xmlns="http://www.w3.org/2000/svg" version="1.0" width="500.000000pt" height="214.000000pt" viewBox="0 0 500.000000 214.000000" preserveAspectRatio="xMidYMid meet">

<g transform="translate(0.000000,214.000000) scale(0.100000,-0.100000)" fill="#f7f6f6" stroke="none">
<path d="M2625 2116 l-30 -24 -23 21 -22 21 -30 -29 c-39 -38 -35 -64 12 -89 36 -18 39 -18 56 -2 24 21 47 12 62 -23 12 -30 1 -72 -26 -103 -9 -9 -14 -26 -12 -38 l3 -21 21 20 c12 11 25 17 28 14 3 -4 6 1 6 10 0 24 27 21 35 -3 18 -57 15 -82 -15 -106 -71 -60 -57 -192 24 -224 30 -13 -110 -12 -214 0 -47 6 -118 17 -158 26 -62 13 -72 18 -67 33 4 15 -25 32 -172 101 -139 64 -190 93 -233 133 -136 125 -283 207 -455 253 -88 24 -119 27 -255 28 -168 0 -245 -14 -387 -70 -232 -91 -434 -284 -543 -517 -65 -138 -82 -212 -87 -385 -6 -177 5 -266 49 -392 82 -233 229 -412 447 -544 89 -54 241 -109 341 -125 84 -14 280 -14 356 0 136 24 279 82 399 162 34 22 213 192 412 390 l351 350 200 -204 c109 -112 218 -226 241 -252 64 -75 247 -234 338 -294 168 -110 304 -153 514 -160 161 -6 238 3 363 43 331 106 587 379 677 722 27 100 36 292 20 403 -92 628 -727 1023 -1331 828 -69 -23 -207 -88 -252 -120 -33 -24 -37 -24 -31 0 8 33 -16 88 -53 121 -63 55 -164 32 -201 -45 -34 -72 -107 -19 -101 73 l3 42 -115 0 c-107 0 -117 -2 -145 -24z m545 -56 c33 -24 55 -80 45 -118 -14 -58 -83 -99 -139 -84 -16 5 -31 12 -32 18 -5 15 47 71 53 57 8 -22 29 -14 31 12 2 32 -12 39 -77 40 -68 0 -74 14 -28 60 29 29 42 35 77 35 26 0 53 -8 70 -20z m-405 -56 c-4 -34 -3 -60 4 -68 8 -9 2 -17 -21 -30 -29 -18 -31 -18 -40 -2 -5 10 -11 41 -12 71 -3 53 -2 54 33 68 20 8 38 15 40 16 2 1 0 -24 -4 -55z m125 -5 c0 -10 -4 -19 -10 -19 -5 0 -10 12 -10 26 0 14 4 23 10 19 6 -3 10 -15 10 -26z m75 -29 c-3 -5 -12 -7 -20 -3 -21 7 -19 13 6 13 11 0 18 -4 14 -10z m115 -8 c0 -4 -14 -23 -31 -42 -19 -22 -28 -28 -23 -15 4 11 8 30 8 43 1 16 7 22 24 22 12 0 22 -4 22 -8z m-1913 -12 c20 0 22 -4 17 -25 -9 -37 18 -72 68 -86 57 -15 538 -237 559 -258 20 -19 84 -131 75 -131 -3 0 -29 15 -58 34 -204 130 -438 198 -685 200 l-133 1 0 110 c0 162 3 168 89 159 24 -2 54 -4 68 -4z m2911 -19 c296 -86 523 -318 604 -620 30 -110 30 -324 0 -436 -30 -111 -110 -267 -178 -345 -71 -82 -88 -92 -62 -39 24 51 48 158 48 221 1 360 -354 748 -787 859 -168 42 -348 48 -479 15 -33 -8 -79 -17 -103 -21 l-44 -7 39 48 c59 71 199 191 284 240 78 46 155 75 261 99 95 22 321 14 417 -14z m-3142 -168 c0 -93 6 -197 13 -233 17 -90 68 -255 97 -312 l24 -47 -47 -63 c-49 -66 -190 -210 -223 -228 -16 -9 -23 -2 -55 48 -125 197 -185 416 -185 668 l0 132 43 37 c79 69 260 163 317 164 13 1 15 -24 16 -166z m2008 145 c33 -47 4 -53 -39 -8 l-29 30 27 0 c15 0 32 -9 41 -22z m36 3 c5 -11 6 -22 1 -25 -4 -3 -13 6 -19 19 -14 30 2 34 18 6z m-100 -46 c0 -2 -8 -2 -17 0 -10 2 -40 7 -67 10 l-49 7 28 18 c28 18 28 18 66 -7 22 -14 39 -27 39 -28z m158 -15 c22 -11 51 -20 64 -20 18 0 3 -20 -82 -105 l-105 -105 -7 51 c-4 36 -14 59 -34 80 -31 32 -84 53 -113 44 -22 -7 -32 13 -24 45 5 18 11 21 33 16 15 -2 51 -8 80 -12 l52 -7 -6 -39 -6 -39 32 17 c55 28 89 55 82 65 -3 6 -12 8 -20 5 -8 -3 -14 1 -14 9 0 20 18 19 68 -5z m-196 -100 c96 -75 27 -226 -90 -199 -132 29 -112 219 23 219 27 0 51 -7 67 -20z m-2337 -419 c33 -161 100 -331 178 -454 l37 -57 -43 -27 c-67 -42 -274 -131 -282 -121 -2 2 -11 21 -22 43 -130 260 -106 610 57 858 l45 68 6 -113 c4 -62 14 -151 24 -197z m813 264 c185 -27 363 -100 532 -215 78 -54 91 -67 102 -104 24 -82 11 -406 -17 -406 -3 0 -42 29 -87 64 -183 140 -395 228 -628 260 l-85 12 -32 74 c-35 81 -76 220 -87 288 l-6 42 105 0 c58 0 149 -7 203 -15z m2102 -40 c0 -15 -32 -65 -41 -65 -21 0 -69 31 -69 45 0 13 11 15 93 23 9 1 17 0 17 -3z m73 -19 l38 -15 -21 -41 c-11 -22 -23 -40 -26 -40 -5 0 -65 29 -72 35 -6 5 30 85 37 81 3 -2 23 -11 44 -20z m115 4 c27 0 45 -17 39 -33 -5 -14 -10 -14 -46 0 -23 9 -41 23 -41 31 0 9 6 12 16 8 9 -3 23 -6 32 -6z m-1436 -227 l218 -217 -228 -231 c-125 -126 -230 -231 -234 -233 -4 -2 8 30 27 70 19 41 43 108 55 149 27 94 37 276 21 379 -10 63 -57 220 -85 283 -5 9 -5 17 0 17 4 0 106 -98 226 -217z m218 191 c47 -9 151 -19 233 -23 l147 -6 -124 -124 -125 -125 -98 95 c-54 52 -119 110 -145 129 -64 45 -65 88 -3 76 17 -3 68 -13 115 -22z m864 20 c20 -8 20 -13 1 -57 l-15 -36 -40 16 c-44 18 -48 27 -24 61 15 22 47 28 78 16z m500 -25 c6 -5 5 -18 -2 -34 l-12 -26 -40 21 c-44 22 -43 21 -34 45 5 13 14 15 43 10 20 -4 40 -11 45 -16z m-610 -4 c-7 -17 -20 -20 -28 -6 -4 5 0 12 6 14 23 9 28 7 22 -8z m446 -5 l40 -20 -20 -40 -20 -39 -37 16 c-21 8 -39 16 -40 17 -4 3 29 86 34 86 2 0 22 -9 43 -20z m-243 -8 l32 -17 -19 -43 -19 -43 -41 21 c-22 11 -40 22 -40 25 0 15 36 75 44 75 6 -1 25 -9 43 -18z m483 -8 c22 -9 40 -18 40 -20 0 -12 -25 -54 -32 -54 -8 0 -67 27 -76 35 -3 3 20 55 24 55 2 0 22 -7 44 -16z m-725 -8 c17 -12 17 -17 5 -45 -17 -42 -23 -44 -65 -27 -42 18 -44 37 -7 65 32 24 42 25 67 7z m588 -22 c18 -9 33 -18 35 -19 4 -3 -29 -85 -34 -85 -3 0 -22 9 -44 20 l-39 20 17 40 c19 45 21 46 65 24z m-503 -14 l40 -20 -20 -40 c-11 -22 -23 -40 -26 -40 -5 0 -65 29 -72 35 -4 3 29 85 34 85 3 0 23 -9 44 -20z m253 4 c18 -9 33 -18 35 -19 5 -4 -31 -75 -39 -75 -11 0 -79 30 -79 35 0 13 35 75 42 75 5 0 23 -7 41 -16z m516 -22 c11 -8 11 -14 1 -33 -7 -13 -14 -25 -15 -27 -5 -5 -75 32 -75 39 0 4 4 19 10 34 9 25 11 25 37 11 16 -9 34 -19 42 -24z m-1003 -57 c-14 -32 -17 -35 -37 -25 -21 12 -21 12 12 46 38 40 47 32 25 -21z m624 10 c0 -2 -8 -20 -17 -40 -18 -37 -27 -38 -80 -11 l-22 11 19 43 19 43 41 -21 c22 -11 40 -22 40 -25z m214 30 c41 -17 42 -21 20 -69 l-17 -34 -43 21 -43 20 20 39 c11 21 21 38 23 38 2 0 20 -7 40 -15z m-504 -11 c22 -9 40 -18 40 -20 0 -3 -31 -72 -36 -82 -1 -2 -20 6 -42 17 l-41 21 17 40 c9 22 18 40 19 40 2 0 21 -7 43 -16z m-243 -12 l32 -17 -19 -43 -19 -43 -41 21 c-22 11 -40 22 -40 25 0 15 36 75 44 75 6 -1 25 -9 43 -18z m1010 -28 c3 -7 3 -21 -1 -29 -5 -14 -10 -14 -43 0 -48 20 -48 21 -35 50 12 25 13 25 42 10 17 -9 34 -23 37 -31z m-127 -25 c0 -13 -29 -69 -36 -69 -16 0 -74 31 -74 39 0 6 7 26 17 45 l16 35 39 -20 c21 -11 38 -24 38 -30z m-285 24 c19 -9 35 -21 35 -25 0 -8 -28 -67 -35 -76 -5 -6 -75 32 -75 40 0 13 28 78 34 78 3 0 21 -8 41 -17z m-250 -10 c37 -18 38 -28 11 -79 -11 -21 -11 -21 -54 -2 l-42 19 20 39 c11 22 22 40 25 40 2 0 20 -8 40 -17z m-245 -8 c17 -9 30 -17 30 -20 0 -13 -35 -75 -42 -75 -8 0 -67 28 -76 35 -2 1 5 19 14 39 20 40 31 43 74 21z m1005 -66 c-4 -5 -24 0 -46 11 -42 22 -42 21 -33 44 5 13 13 11 45 -15 22 -17 37 -35 34 -40z m-1244 51 c19 -11 19 -11 -1 -50 -19 -37 -22 -39 -45 -28 -30 13 -31 21 -8 59 19 32 25 34 54 19z m1089 -10 l40 -20 -20 -40 c-11 -22 -22 -40 -25 -40 -12 0 -75 35 -75 42 0 9 33 78 37 78 2 0 22 -9 43 -20z m-470 -41 c0 -18 -30 -69 -41 -69 -17 0 -69 30 -69 40 0 5 7 25 17 44 l16 35 39 -20 c21 -11 38 -24 38 -30z m214 36 c40 -17 42 -22 22 -70 l-15 -34 -40 16 c-23 9 -41 19 -41 23 0 11 30 80 34 80 2 0 20 -7 40 -15z m-465 -32 c4 -3 -30 -83 -35 -83 -2 0 -19 8 -39 17 -39 19 -42 30 -20 73 l15 30 38 -17 c20 -10 39 -19 41 -20z m-286 11 c18 -9 33 -18 35 -19 2 -2 -27 -77 -33 -83 -2 -2 -21 6 -43 17 l-41 21 17 40 c19 45 21 46 65 24z m-217 -31 c-22 -44 -37 -109 -44 -197 l-7 -80 -54 68 -54 68 84 84 c46 46 85 84 87 84 1 0 -4 -12 -12 -27z m1324 11 c22 -9 40 -18 40 -20 0 -3 -9 -23 -20 -44 l-20 -40 -40 20 -39 20 16 40 c9 22 18 40 19 40 2 0 22 -7 44 -16z m-497 -18 l38 -15 -21 -41 c-11 -22 -22 -40 -25 -40 -12 0 -75 35 -75 42 0 14 33 77 39 74 3 -2 23 -11 44 -20z m254 6 l32 -17 -19 -43 -19 -43 -41 21 c-22 11 -40 22 -40 25 0 15 36 75 44 75 6 -1 25 -9 43 -18z m-512 -9 c19 -9 35 -21 35 -25 0 -8 -28 -67 -35 -76 -4 -5 -75 31 -75 39 0 11 30 79 35 79 2 0 20 -8 40 -17z m-251 -8 c20 -8 36 -17 36 -20 0 -2 -7 -22 -16 -44 l-16 -40 -43 21 -44 21 20 39 c11 21 21 38 23 38 2 0 20 -7 40 -15z m-230 -18 c17 -12 17 -15 0 -50 -14 -30 -22 -36 -38 -31 -30 9 -30 10 -17 54 12 42 26 48 55 27z m1339 -3 c18 -9 33 -18 35 -19 5 -5 -29 -75 -37 -75 -5 0 -25 7 -45 15 l-36 15 20 40 c11 22 23 40 26 40 3 0 19 -7 37 -16z m-503 -14 l40 -20 -20 -40 -20 -39 -37 16 c-21 8 -39 16 -41 18 -4 3 29 85 34 85 3 0 23 -9 44 -20z m256 5 l35 -14 -16 -38 c-9 -20 -18 -39 -20 -42 -5 -4 -85 29 -85 35 0 12 35 74 42 74 5 0 24 -7 44 -15z m-726 -46 c0 -18 -30 -69 -41 -69 -17 0 -69 30 -69 40 0 5 7 25 17 44 l16 35 39 -20 c21 -11 38 -24 38 -30z m220 36 c34 -18 35 -23 15 -71 l-14 -35 -41 21 c-22 11 -40 22 -40 25 0 13 35 75 42 75 5 0 22 -7 38 -15z m-505 -12 c19 -9 35 -21 35 -25 0 -8 -28 -67 -35 -76 -5 -6 -75 32 -75 40 0 13 28 78 34 78 3 0 21 -8 41 -17z m1144 -40 c5 -3 -30 -83 -36 -83 -2 0 -22 9 -43 20 l-40 20 20 40 20 40 38 -17 c20 -10 39 -19 41 -20z m-286 11 c18 -9 33 -18 35 -19 2 -1 -5 -19 -14 -39 -19 -40 -31 -43 -74 -21 l-28 15 15 40 c18 45 21 46 66 24z m491 -25 c36 -52 24 -71 -29 -46 -19 9 -35 21 -35 26 0 15 22 61 29 61 3 0 19 -19 35 -41z m-994 11 l40 -20 -20 -40 c-11 -22 -22 -40 -25 -40 -12 0 -75 35 -75 42 0 9 33 78 37 78 2 0 22 -9 43 -20z m254 3 l35 -16 -15 -36 c-8 -19 -17 -37 -19 -40 -5 -4 -85 29 -85 35 0 11 35 74 42 74 4 0 23 -7 42 -17z m-509 -10 c40 -19 41 -21 19 -66 l-16 -34 -39 16 c-21 9 -39 19 -39 22 0 11 30 79 35 79 2 0 20 -8 40 -17z m-1763 -13 c56 -11 137 -31 180 -46 l78 -25 -34 -68 c-71 -141 -208 -298 -356 -409 -94 -72 -252 -153 -364 -188 l-86 -26 -38 25 c-97 69 -233 211 -215 227 4 4 31 15 58 25 127 46 271 132 390 233 66 57 180 184 220 245 21 33 32 33 167 7z m1548 -21 c0 -18 -30 -69 -42 -69 -7 0 -8 13 -4 38 3 20 6 43 6 50 0 10 5 10 20 2 11 -6 20 -15 20 -21z m1325 14 c19 -9 35 -21 35 -25 0 -8 -28 -67 -35 -76 -5 -6 -75 32 -75 40 0 13 28 78 34 78 3 0 21 -8 41 -17z m-465 -38 c0 -13 -35 -75 -42 -75 -8 0 -67 28 -76 35 -2 2 6 22 18 44 l20 41 40 -20 c22 -11 40 -22 40 -25z m215 29 c28 -11 35 -19 30 -32 -4 -9 -11 -29 -17 -44 l-10 -27 -43 21 -44 21 20 39 c11 21 21 38 23 38 2 0 20 -7 41 -16z m-505 -14 l40 -20 -20 -40 -20 -40 -40 20 -40 20 15 36 c8 20 15 38 15 40 0 7 11 4 50 -16z m-470 -37 c0 -15 -28 -73 -35 -73 -12 0 -75 35 -75 42 0 4 7 23 16 41 l16 34 39 -15 c22 -8 39 -21 39 -29z m226 29 l31 -17 -18 -43 -18 -43 -41 21 c-22 11 -40 22 -40 25 0 15 36 75 44 75 6 -1 25 -9 42 -18z m884 -53 c0 -18 -30 -69 -41 -69 -17 0 -69 30 -69 40 0 5 7 25 17 44 l16 35 39 -20 c21 -11 38 -24 38 -30z m214 36 c41 -17 42 -19 21 -69 l-15 -36 -40 20 c-22 11 -40 22 -40 24 0 8 30 76 34 76 2 0 20 -7 40 -15z m-499 -12 c19 -9 35 -21 35 -25 0 -8 -28 -67 -35 -76 -7 -8 -75 33 -75 45 0 15 28 73 35 73 2 0 20 -8 40 -17z m-252 -9 c18 -9 33 -18 35 -19 2 -1 -5 -19 -14 -39 -20 -40 -31 -43 -74 -21 l-29 15 17 40 c19 45 21 46 65 24z m-503 -14 l40 -20 -20 -40 -20 -39 -37 16 c-21 8 -39 16 -41 18 -4 3 29 85 34 85 3 0 23 -9 44 -20z m256 5 l35 -14 -16 -38 c-9 -20 -18 -39 -20 -42 -5 -4 -85 29 -85 35 0 12 35 74 42 74 5 0 24 -7 44 -15z m882 -40 c7 -6 -6 -48 -21 -68 -12 -18 -14 -18 -50 -1 -42 20 -43 21 -20 68 l16 35 36 -15 c19 -8 37 -17 39 -19z m222 15 c21 -21 26 -55 11 -79 -8 -13 -15 -12 -50 4 -23 10 -41 19 -41 21 0 2 8 19 17 39 19 40 34 44 63 15z m-720 -36 c0 -17 -31 -74 -40 -74 -18 0 -70 30 -70 40 0 5 7 25 17 44 l16 35 39 -20 c21 -11 38 -22 38 -25z m215 29 c40 -19 41 -21 19 -66 l-16 -34 -39 16 c-21 9 -39 20 -39 24 0 12 28 77 34 77 3 0 21 -8 41 -17z m-2197 -17 c59 -31 157 -99 212 -149 l42 -39 -18 -41 c-56 -125 -192 -286 -309 -367 -67 -46 -180 -97 -270 -121 -110 -30 -287 -30 -398 -1 -110 30 -119 37 -71 52 160 51 379 194 517 339 74 78 185 233 223 314 10 20 19 37 21 37 2 0 25 -11 51 -24z m1731 -13 c5 -3 -30 -83 -36 -83 -2 0 -22 9 -43 20 l-40 20 20 40 20 40 38 -17 c20 -10 39 -19 41 -20z m-286 11 c18 -9 33 -18 35 -19 2 -1 -5 -19 -14 -39 -19 -40 -31 -43 -74 -21 l-28 15 15 40 c18 45 21 46 66 24z m-250 -10 l34 -16 -15 -39 c-17 -44 -33 -48 -62 -19 -20 20 -25 45 -14 74 8 20 15 20 57 0z m1357 -14 l40 -20 -20 -40 -20 -40 -40 20 c-22 11 -40 22 -40 25 0 7 33 75 37 75 2 0 22 -9 43 -20z m-470 -38 c0 -13 -28 -72 -34 -72 -15 0 -76 32 -76 40 0 5 7 25 16 43 l16 34 39 -16 c21 -9 39 -22 39 -29z m226 30 l31 -17 -18 -43 -18 -43 -41 21 c-22 11 -40 22 -40 25 0 15 36 75 44 75 6 -1 25 -9 42 -18z m-511 -9 c19 -9 35 -21 35 -25 0 -8 -28 -67 -35 -76 -7 -8 -75 33 -75 45 0 15 28 73 35 73 2 0 20 -8 40 -17z m-465 -38 c0 -13 -35 -75 -42 -75 -8 0 -67 28 -76 35 -2 2 6 22 18 44 l20 41 40 -20 c22 -11 40 -22 40 -25z m215 29 c28 -11 35 -19 30 -32 -4 -9 -11 -29 -17 -44 l-10 -27 -43 21 -44 21 20 39 c11 21 21 38 23 38 2 0 20 -7 41 -16z m1203 -34 c-2 -5 -9 -6 -16 -1 -7 4 -10 15 -6 25 6 17 8 17 16 2 5 -9 8 -21 6 -26z m-95 14 c18 -9 33 -18 35 -19 6 -5 -32 -75 -40 -75 -5 0 -24 6 -43 14 l-34 15 16 40 c18 46 21 47 66 25z m-503 -14 l40 -20 -20 -40 -20 -40 -37 15 c-20 9 -39 18 -42 20 -4 5 29 85 36 85 2 0 22 -9 43 -20z m256 5 l35 -14 -16 -38 c-9 -20 -18 -39 -20 -42 -5 -4 -85 29 -85 35 0 12 35 74 42 74 5 0 24 -7 44 -15z m-726 -41 c0 -17 -31 -74 -40 -74 -18 0 -70 30 -70 40 0 5 7 25 17 44 l16 35 39 -20 c21 -11 38 -22 38 -25z m214 31 c41 -17 42 -21 19 -69 l-16 -35 -39 20 c-21 11 -38 22 -38 25 0 9 29 74 33 74 3 0 21 -7 41 -15z m-499 -12 c19 -9 35 -21 35 -25 0 -8 -28 -67 -35 -76 -7 -8 -75 33 -75 45 0 15 28 73 35 73 2 0 20 -8 40 -17z m1144 -40 c4 -3 -29 -83 -34 -83 -7 0 -71 29 -77 35 -4 4 2 25 13 46 l19 39 38 -17 c20 -10 39 -19 41 -20z m223 14 c12 -18 9 -75 -3 -83 -6 -3 -28 1 -49 11 l-38 17 17 39 c14 35 19 39 41 33 14 -3 28 -11 32 -17z m-509 -3 c18 -9 33 -18 35 -19 2 -2 -6 -22 -18 -44 l-20 -41 -40 20 -40 20 15 36 c8 20 15 38 15 40 0 9 23 3 53 -12z m-475 -29 c7 -6 -6 -48 -21 -68 -12 -18 -14 -18 -50 -1 -42 20 -43 21 -20 68 l16 35 36 -15 c19 -8 37 -17 39 -19z m225 19 l34 -16 -15 -39 c-8 -22 -19 -39 -24 -39 -13 0 -78 28 -78 34 0 13 35 76 42 76 4 0 23 -7 41 -16z m-508 -11 c40 -19 41 -21 19 -66 l-16 -34 -39 16 c-21 9 -39 20 -39 24 0 12 28 77 34 77 3 0 21 -8 41 -17z m-245 -8 c30 -16 37 -29 22 -39 -5 -3 -22 8 -37 24 -32 34 -28 37 15 15z m1355 -12 c19 -9 35 -21 35 -25 0 -8 -28 -67 -35 -76 -2 -2 -22 6 -44 18 l-41 20 20 40 c11 22 22 40 25 40 2 0 20 -8 40 -17z m-465 -38 c0 -13 -35 -75 -42 -75 -8 0 -67 28 -76 35 -2 2 6 22 18 44 l20 41 40 -20 c22 -11 40 -22 40 -25z m214 30 c20 -8 36 -17 36 -19 0 -14 -32 -76 -39 -76 -5 0 -25 7 -45 15 l-36 15 20 40 c11 22 22 40 24 40 2 0 20 -7 40 -15z m-504 -15 l40 -20 -20 -40 -20 -40 -40 20 c-22 11 -40 22 -40 25 0 7 33 75 37 75 2 0 22 -9 43 -20z m-470 -40 c-1 -8 -6 -25 -13 -38 l-13 -22 -33 34 c-24 25 -31 40 -27 54 7 20 8 20 46 4 22 -10 40 -24 40 -32z m226 32 l31 -17 -19 -43 -19 -42 -39 20 c-22 11 -40 22 -40 25 0 15 36 75 44 75 6 -1 25 -9 42 -18z m884 -48 c0 -17 -31 -74 -40 -74 -18 0 -70 30 -70 40 0 5 7 25 17 44 l16 35 39 -20 c21 -11 38 -22 38 -25z m215 29 c40 -19 41 -21 18 -67 l-16 -35 -39 20 c-21 11 -38 22 -38 25 0 10 29 74 34 74 3 0 21 -8 41 -17z m-466 -28 c4 -5 -29 -85 -36 -85 -2 0 -22 9 -43 20 l-40 20 20 40 20 40 37 -15 c20 -9 39 -18 42 -20z m-286 9 c18 -9 33 -18 35 -19 6 -5 -32 -75 -40 -75 -5 0 -24 6 -43 14 l-34 15 16 40 c18 46 21 47 66 25z m-503 -14 l40 -20 -20 -40 c-11 -22 -24 -40 -28 -40 -10 0 -72 38 -72 45 0 7 33 75 37 75 2 0 22 -9 43 -20z m255 6 l34 -15 -16 -40 c-9 -23 -20 -41 -25 -41 -8 0 -67 27 -76 35 -6 5 32 75 40 75 5 0 24 -6 43 -14z m883 -41 c6 -6 -18 -74 -28 -80 -10 -6 -80 25 -80 37 0 4 7 23 17 42 l16 35 36 -15 c19 -8 37 -16 39 -19z m191 3 c0 -18 -4 -41 -7 -51 -6 -15 -10 -16 -26 -4 -17 12 -17 14 0 50 22 46 34 47 33 5z m-474 5 c40 -19 41 -21 19 -66 l-16 -34 -39 15 c-43 17 -47 28 -24 72 18 35 15 34 60 13z m-467 -29 c3 -2 -29 -84 -33 -84 -4 0 -80 32 -83 35 -2 2 6 21 17 44 l21 41 38 -17 c20 -10 38 -18 40 -19z m222 21 c35 -18 34 -13 15 -59 -17 -41 -21 -42 -68 -20 l-34 16 16 39 c18 43 28 46 71 24z m-514 -11 c22 -9 40 -17 42 -19 2 -2 -6 -22 -18 -44 l-20 -41 -40 20 -40 20 15 36 c8 20 15 38 15 40 0 6 5 5 46 -12z m1114 -24 l40 -20 -20 -40 -20 -40 -40 20 c-22 11 -40 22 -40 25 0 7 33 75 37 75 2 0 22 -9 43 -20z m-470 -36 c0 -9 -29 -74 -33 -74 -15 0 -77 32 -77 40 0 5 7 25 17 44 l16 35 39 -20 c21 -11 38 -22 38 -25z m224 30 l34 -17 -21 -43 -20 -43 -39 20 c-21 11 -38 22 -38 25 0 16 31 74 39 74 6 0 26 -7 45 -16z m-509 -11 c19 -9 35 -21 35 -25 0 -8 -28 -67 -35 -76 -2 -2 -22 6 -44 18 l-41 20 20 40 c11 22 22 40 25 40 2 0 20 -8 40 -17z m-252 -9 c18 -9 33 -18 35 -19 5 -4 -31 -75 -39 -75 -3 0 -23 7 -42 15 l-36 15 17 40 c19 45 21 46 65 24z m1096 -13 c12 -8 13 -18 5 -48 -10 -41 -29 -51 -56 -31 -15 12 -15 16 -1 51 15 38 27 44 52 28z m-494 -18 c39 -19 42 -30 20 -74 -16 -29 -16 -29 -52 -14 -20 9 -39 18 -42 20 -4 5 29 85 35 85 2 0 19 -8 39 -17z m260 2 l35 -14 -17 -38 c-10 -21 -19 -40 -20 -42 -3 -4 -83 30 -83 35 0 12 35 74 42 74 5 0 24 -7 43 -15z m-725 -41 c0 -17 -31 -74 -40 -74 -18 0 -70 30 -70 40 0 5 7 25 17 44 l16 35 39 -20 c21 -11 38 -22 38 -25z m215 29 c40 -19 41 -21 18 -67 l-16 -35 -39 20 c-43 22 -44 27 -23 69 18 35 15 34 60 13z m-469 -23 c9 0 3 -29 -7 -36 -11 -6 -69 42 -69 58 0 5 16 1 36 -7 20 -8 38 -15 40 -15z m1112 -26 c4 -2 -29 -84 -34 -84 -9 0 -84 33 -84 36 0 3 9 23 20 44 l20 40 38 -17 c20 -10 38 -18 40 -19z m-285 10 c18 -9 33 -18 35 -19 2 -2 -6 -22 -18 -44 l-20 -41 -40 20 c-22 11 -40 22 -40 25 0 13 35 75 42 75 5 0 23 -7 41 -16z m-475 -29 c6 -6 -18 -74 -28 -80 -10 -6 -80 25 -80 37 0 4 7 23 17 42 l16 35 36 -15 c19 -8 37 -16 39 -19z m226 18 l35 -16 -20 -39 c-11 -21 -22 -38 -25 -38 -9 0 -74 29 -74 33 0 15 32 77 40 77 5 0 25 -7 44 -17z m-509 -10 c40 -19 41 -23 19 -65 l-16 -31 -35 35 c-30 31 -34 38 -24 57 14 25 12 25 56 4z m1101 -17 c19 -14 19 -15 0 -50 -21 -39 -27 -42 -57 -26 -19 11 -19 11 1 50 23 44 27 46 56 26z m-473 -76 c-9 -22 -20 -40 -25 -40 -8 0 -67 28 -76 35 -2 2 6 22 18 44 l20 41 40 -20 39 -20 -16 -40z m231 65 c20 -8 36 -17 36 -20 0 -13 -35 -75 -42 -75 -5 0 -24 7 -44 15 l-35 14 16 37 c8 20 15 38 15 40 0 8 18 4 54 -11z m-504 -15 l40 -20 -20 -40 -20 -40 -40 20 c-22 11 -40 22 -40 25 0 7 33 75 37 75 2 0 22 -9 43 -20z m-250 -5 c35 -18 36 -23 13 -69 l-16 -35 -39 20 c-21 11 -38 21 -38 23 0 15 32 76 41 76 5 0 23 -7 39 -15z m890 -49 c0 -15 -32 -76 -41 -76 -17 0 -69 30 -69 40 0 5 7 25 17 44 l16 35 39 -20 c21 -11 38 -21 38 -23z m-252 -1 c4 -3 -29 -85 -34 -85 -3 0 -23 9 -44 20 l-40 20 20 40 20 39 37 -16 c21 -8 39 -16 41 -18z m-285 9 c18 -9 33 -18 35 -19 2 -2 -6 -22 -18 -44 l-20 -41 -40 20 c-22 11 -40 22 -40 25 0 13 35 75 42 75 5 0 23 -7 41 -16z m-249 -9 l36 -15 -17 -38 c-10 -20 -19 -39 -20 -41 -3 -4 -83 30 -83 35 0 11 35 74 41 74 3 0 23 -7 43 -15z m846 -24 c0 -4 -16 -22 -35 -41 -38 -37 -44 -30 -19 23 12 26 21 33 35 30 11 -3 19 -8 19 -12z m-245 -8 c40 -19 41 -25 17 -69 l-17 -31 -43 18 -43 18 21 41 c11 22 22 40 25 40 2 0 20 -8 40 -17z m-482 -73 c-9 -22 -20 -40 -25 -40 -8 0 -67 28 -76 35 -2 2 6 22 18 44 l20 41 40 -20 39 -20 -16 -40z m232 66 c19 -8 35 -17 35 -20 0 -13 -35 -76 -42 -76 -4 0 -23 7 -41 16 l-34 16 15 39 c17 44 19 45 67 25z m135 -70 c0 -8 -30 -76 -34 -76 -14 0 -76 32 -76 40 0 5 7 25 17 44 l16 35 39 -20 c21 -11 38 -21 38 -23z m220 29 c42 -22 37 -41 -15 -61 -60 -22 -76 -10 -52 41 19 39 26 41 67 20z m-507 -11 c18 -9 33 -18 35 -19 2 -2 -4 -19 -12 -39 -16 -40 -32 -44 -77 -21 l-29 16 20 39 c11 22 23 40 26 40 3 0 19 -7 37 -16z m352 -41 c45 -22 44 -39 -2 -52 -40 -11 -73 -14 -73 -6 0 6 33 75 37 75 1 0 18 -8 38 -17z m-250 -10 c36 -17 41 -28 26 -52 -7 -10 -21 -12 -55 -7 -25 4 -46 9 -46 12 0 9 30 64 35 64 2 0 20 -8 40 -17z m105 -48 c25 -14 24 -14 -17 -15 -40 0 -52 8 -36 23 10 10 25 8 53 -8z" fill="#f7f6f6"/>
<path d="M3145 1930 c-3 -5 -1 -10 4 -10 6 0 11 5 11 10 0 6 -2 10 -4 10 -3 0 -8 -4 -11 -10z" fill="#f7f6f6"/>
<path d="M2760 1662 c0 -13 8 -21 25 -24 18 -4 22 -2 16 6 -5 6 -9 16 -10 21 0 20 -31 17 -31 -3z" fill="#f7f6f6"/>
</g>
</svg>