<svg xmlns="http://www.w3.org/2000/svg" width="500" height="500" viewBox="0 0 500 500" version="1.1">
	<path d="M 176.250 89.997 C 175.012 91, 174 92.086, 174 92.410 C 174 93.490, 177.475 92.955, 179.261 91.600 C 180.650 90.546, 180.755 90.042, 179.761 89.218 C 178.855 88.468, 177.866 88.687, 176.250 89.997 M 320.250 89.981 C 319.012 90.993, 318 92.086, 318 92.410 C 318 93.650, 321.815 92.928, 323.035 91.458 C 325.046 89.034, 322.839 87.864, 320.250 89.981 M 387.250 89.997 C 386.012 91, 385 92.086, 385 92.410 C 385 93.492, 388.594 93.017, 390.399 91.697 C 391.864 90.626, 391.943 90.198, 390.840 89.284 C 389.831 88.448, 388.944 88.624, 387.250 89.997 M 422.250 89.717 C 421.012 90.557, 420 91.639, 420 92.122 C 420 93.460, 422.387 93.170, 424.559 91.567 C 427.388 89.479, 425.193 87.720, 422.250 89.717 M 78.480 90.032 C 78.092 90.660, 78.245 91.645, 78.820 92.220 C 80.164 93.564, 83.297 92.392, 82.750 90.749 C 82.194 89.078, 79.364 88.602, 78.480 90.032 M 85.480 90.032 C 85.092 90.660, 85.245 91.645, 85.820 92.220 C 87.164 93.564, 90.297 92.392, 89.750 90.749 C 89.194 89.078, 86.364 88.602, 85.480 90.032 M 115.480 90.032 C 115.092 90.660, 115.245 91.645, 115.820 92.220 C 117.164 93.564, 120.297 92.392, 119.750 90.749 C 119.194 89.078, 116.364 88.602, 115.480 90.032 M 122.480 90.032 C 122.092 90.660, 122.245 91.645, 122.820 92.220 C 124.164 93.564, 127.297 92.392, 126.750 90.749 C 126.194 89.078, 123.364 88.602, 122.480 90.032 M 432 100 L 432 111 434.872 111 C 437.469 111, 437.815 110.592, 438.482 106.750 C 439.210 102.559, 439.236 102.536, 440.360 105.104 C 442.227 109.369, 444.081 111, 447.063 111 C 450.759 111, 451.757 109.218, 449.103 107.359 C 446.983 105.875, 444 101.017, 444 99.050 C 444 98.472, 444.675 98, 445.500 98 C 446.325 98, 447 97.550, 447 97 C 447 95.064, 443.243 96.030, 440.636 98.636 L 438 101.273 438 95.136 L 438 89 435 89 L 432 89 432 100 M 54.170 90.819 C 51.677 91.058, 50.985 91.519, 51.420 92.651 C 51.739 93.483, 52 97.952, 52 102.582 L 52 111 54.793 111 C 57.278 111, 57.726 110.477, 58.866 106.250 L 60.147 101.500 61.437 104.500 C 63.859 110.133, 70.381 113.655, 72.860 110.668 C 73.859 109.465, 73.448 108.822, 70.524 107.015 C 66.333 104.425, 65 102.253, 65 98.017 C 65 95.518, 65.581 94.659, 67.942 93.667 C 69.806 92.883, 70.614 91.993, 70.147 91.239 C 69.055 89.471, 61.643 93.425, 59.904 96.703 L 58.500 99.349 58 94.925 C 57.511 90.597, 57.427 90.507, 54.170 90.819 M 246.315 90.697 C 245.055 90.942, 242.789 93.212, 240.961 96.061 C 239.218 98.777, 237.626 101, 237.424 101 C 237.221 101, 236.088 98.750, 234.905 96 C 232.957 91.472, 232.448 91, 229.516 91 C 226.357 91, 226.263 91.128, 225.648 96.250 C 225.301 99.138, 225.013 103.638, 225.009 106.250 C 225.001 110.336, 225.279 111, 227 111 C 228.784 111, 229.003 110.326, 229.023 104.750 L 229.047 98.500 231.777 103.500 C 235.308 109.965, 237.573 110.088, 240.978 104 C 243.265 99.911, 243.520 99.728, 243.767 102 C 244.643 110.050, 245.042 111, 247.545 111 C 249.996 111, 250 110.982, 250 100.500 C 250 94.725, 249.662 90.061, 249.250 90.136 C 248.838 90.211, 247.517 90.464, 246.315 90.697 M 400 93 C 400 94.650, 399.550 96, 399 96 C 398.450 96, 398 96.675, 398 97.500 C 398 98.325, 398.426 99, 398.948 99 C 399.469 99, 400.031 101.352, 400.198 104.226 C 400.448 108.547, 400.906 109.653, 402.843 110.614 C 405.814 112.089, 410.390 110.926, 410.842 108.582 C 411.104 107.222, 410.728 106.952, 409.233 107.426 C 406.655 108.244, 404.770 105.867, 405.178 102.310 C 405.410 100.281, 406.125 99.411, 407.750 99.180 C 410.534 98.785, 410.753 96, 408 96 C 406.444 96, 406 95.333, 406 93 C 406 90.333, 405.667 90, 403 90 C 400.333 90, 400 90.333, 400 93 M 368.838 101.410 C 369.147 110.888, 368.989 112.011, 367.088 113.912 C 365.940 115.060, 364.063 116, 362.917 116 C 361.684 116, 361.012 116.510, 361.270 117.250 C 361.530 117.991, 363.272 118.446, 365.554 118.368 C 368.506 118.267, 370.050 117.509, 372.200 115.102 C 374.889 112.092, 375 111.554, 375 101.484 L 375 91 371.750 90.999 L 368.500 90.998 368.838 101.410 M 81.049 96.113 C 76.912 96.972, 75 99.297, 75 103.469 C 75 108.880, 77.359 111, 83.382 111 C 87.597 111, 89.086 110.537, 90.826 108.686 C 93.496 105.843, 93.566 103.440, 91.093 99.385 C 88.988 95.934, 86.232 95.035, 81.049 96.113 M 98.250 95.704 C 95.848 96.016, 95 96.632, 95 98.063 C 95 99.697, 95.717 100, 99.578 100 L 104.155 100 99.828 103.295 C 97.447 105.107, 95.354 107.602, 95.175 108.840 C 94.859 111.021, 95.075 111.082, 102.175 110.795 C 108.905 110.524, 109.526 110.317, 109.820 108.250 C 110.108 106.220, 109.717 105.996, 105.820 105.958 L 101.500 105.917 105.250 102.602 C 109.226 99.088, 110.157 96.009, 107.250 95.986 C 106.287 95.979, 104.600 95.817, 103.500 95.627 C 102.400 95.437, 100.037 95.471, 98.250 95.704 M 118.772 95.788 C 114.716 96.294, 111.684 100.667, 112.387 104.996 C 113.123 109.531, 115.276 111, 121.191 111 C 128.747 111, 132.183 105.879, 128.750 99.736 C 128.063 98.506, 127.449 97.374, 127.386 97.219 C 127.080 96.467, 121.182 95.488, 118.772 95.788 M 136.250 96.491 C 133.865 97.528, 133 98.549, 133 100.329 C 133 103.275, 134.667 104.783, 138.845 105.619 C 140.580 105.966, 142 106.596, 142 107.018 C 142 108.454, 138.992 108.947, 136.353 107.944 C 133.354 106.804, 132.493 107.237, 133.345 109.457 C 134.177 111.625, 144.253 111.604, 146.429 109.429 C 147.293 108.564, 148 107.471, 148 107 C 148 105.331, 144.825 103, 142.551 103 C 139.786 103, 137.184 100.457, 139.208 99.732 C 139.919 99.478, 141.304 99.684, 142.288 100.191 C 144.223 101.187, 148 100.402, 148 99.004 C 148 97.212, 144.754 95.002, 142.179 95.039 C 140.705 95.061, 138.037 95.714, 136.250 96.491 M 153.869 96.510 C 148.730 99.302, 149.178 103.259, 154.838 105.083 C 159.926 106.722, 160.478 107.153, 158.740 108.125 C 157.863 108.616, 155.890 108.509, 154.061 107.871 C 150.426 106.604, 149.149 107.269, 150.980 109.476 C 151.791 110.454, 153.964 111, 157.041 111 C 163.608 111, 165 110.294, 165 106.960 C 165 104.102, 164.713 103.901, 158.750 102.574 C 157.238 102.237, 156 101.569, 156 101.088 C 156 99.783, 158.845 98.941, 159.527 100.044 C 160.273 101.251, 163.053 101.252, 164.960 100.046 C 166.210 99.255, 166.152 98.825, 164.555 97.061 C 162.370 94.646, 157.738 94.408, 153.869 96.510 M 173.259 95.717 C 168.343 96.638, 166.014 105.892, 169.829 109.345 C 172.799 112.033, 182 111.361, 182 108.456 C 182 107.504, 181.041 107.281, 178.627 107.673 C 174.101 108.408, 173.045 106.402, 177.516 105.563 C 181.354 104.843, 184.424 101.269, 183.430 98.679 C 182.590 96.488, 177.326 94.955, 173.259 95.717 M 191.354 95.761 C 190.174 95.954, 188.430 96.973, 187.477 98.025 C 185.374 100.349, 185.026 107.121, 186.893 109.371 C 188.726 111.580, 194.592 111.502, 195.977 109.250 C 196.917 107.722, 197.019 107.804, 196.777 109.898 C 196.506 112.245, 195.337 113.283, 191.687 114.421 C 188.739 115.339, 190.811 117, 194.904 117 C 197.394 117, 199.297 116.329, 200.463 115.041 C 202.762 112.501, 203.557 105.219, 202.039 100.618 C 200.884 97.118, 200.555 96.900, 194.500 95.622 C 193.950 95.506, 192.534 95.569, 191.354 95.761 M 259.501 96.067 C 255.590 97.232, 254 99.536, 254 104.036 C 254 108.989, 256.418 111, 262.374 111 C 266.049 111, 267.633 110.458, 269.545 108.545 C 270.895 107.195, 271.998 105.283, 271.996 104.295 C 271.991 101.701, 268.280 96, 266.596 96 C 265.808 96, 264.564 95.814, 263.832 95.587 C 263.099 95.359, 261.151 95.575, 259.501 96.067 M 277.250 95.704 C 274.848 96.016, 274 96.632, 274 98.063 C 274 99.664, 274.711 100, 278.097 100 L 282.193 100 277.347 104.418 C 271.240 109.984, 272.059 111.213, 281.599 110.799 C 287.888 110.527, 288.528 110.300, 288.820 108.250 C 289.113 106.186, 288.741 105.998, 284.320 105.980 L 279.500 105.961 283.750 102.397 C 288.191 98.674, 289.230 96.010, 286.250 95.986 C 285.288 95.979, 283.600 95.817, 282.500 95.627 C 281.400 95.437, 279.038 95.471, 277.250 95.704 M 296.655 96.099 C 292.884 97.131, 291.071 99.710, 291.032 104.095 C 290.976 110.442, 298.049 113.623, 301.443 108.777 C 302.777 106.874, 303 106.812, 303 108.343 C 303 111.527, 301.018 114, 298.465 114 C 295.627 114, 295.043 116.644, 297.750 117.237 C 300.409 117.819, 305.347 116.215, 306.750 114.313 C 307.438 113.380, 308 109.865, 308 106.500 C 308 103.135, 307.438 99.620, 306.750 98.687 C 305.068 96.407, 300.143 95.144, 296.655 96.099 M 316.655 96.099 C 312.884 97.131, 311.071 99.710, 311.032 104.095 C 310.977 110.294, 318.041 113.635, 321.316 108.959 L 322.745 106.918 323.279 108.959 C 323.651 110.380, 324.636 111, 326.523 111 C 328.846 111, 329.147 110.678, 328.630 108.750 C 328.299 107.513, 328.007 105.150, 327.982 103.500 C 327.896 97.860, 322.678 94.450, 316.655 96.099 M 335.250 96.491 C 332.865 97.528, 332 98.549, 332 100.329 C 332 103.275, 333.667 104.783, 337.845 105.619 C 339.580 105.966, 341 106.596, 341 107.018 C 341 108.454, 337.992 108.947, 335.353 107.944 C 332.354 106.804, 331.493 107.237, 332.345 109.457 C 333.177 111.625, 343.253 111.604, 345.429 109.429 C 346.293 108.564, 347 107.471, 347 107 C 347 105.331, 343.825 103, 341.551 103 C 338.786 103, 336.184 100.457, 338.208 99.732 C 338.919 99.478, 340.304 99.684, 341.288 100.191 C 343.223 101.187, 347 100.402, 347 99.004 C 347 97.212, 343.754 95.002, 341.179 95.039 C 339.705 95.061, 337.038 95.714, 335.250 96.491 M 384.270 95.809 C 381.355 96.234, 378 100.570, 378 103.912 C 378 109.942, 383.969 113.148, 388.150 109.364 C 389.824 107.849, 390.005 107.849, 390.586 109.364 C 390.937 110.277, 392.322 111, 393.722 111 C 396.191 111, 396.219 110.910, 395.523 105.250 C 395.135 102.088, 394.156 98.760, 393.348 97.855 C 391.801 96.121, 388.005 95.266, 384.270 95.809 M 419.270 95.729 C 413.858 96.712, 411.145 105.145, 415 109 C 418.296 112.296, 428 111.391, 428 107.788 C 428 107.342, 426.200 107.264, 424 107.616 C 419.389 108.353, 418.364 106.577, 422.879 105.674 C 428.007 104.649, 430.864 99.713, 427.750 97.260 C 426.095 95.957, 422.042 95.225, 419.270 95.729 M 81.709 100.624 C 80.389 101.944, 80.974 107.053, 82.513 107.643 C 84.787 108.516, 87.141 106.014, 86.801 103.086 C 86.505 100.545, 83.325 99.008, 81.709 100.624 M 118.406 102.520 C 117.617 105.661, 119.967 108.610, 122.486 107.644 C 125.104 106.639, 124.130 100.590, 121.285 100.185 C 119.599 99.945, 118.912 100.503, 118.406 102.520 M 174.345 101.543 C 174.019 102.392, 173.969 103.302, 174.233 103.567 C 175.124 104.458, 178 102.798, 178 101.393 C 178 99.501, 175.083 99.620, 174.345 101.543 M 192.011 101.487 C 190.715 103.049, 191.388 108, 192.897 108 C 194.226 108, 195.770 105.765, 196.528 102.744 C 197.106 100.442, 196.897 100, 195.231 100 C 194.139 100, 192.690 100.669, 192.011 101.487 M 260.709 100.624 C 259.389 101.944, 259.974 107.053, 261.513 107.643 C 263.787 108.516, 266.141 106.014, 265.801 103.086 C 265.505 100.545, 262.325 99.008, 260.709 100.624 M 297.667 100.667 C 296.563 101.771, 296.917 106.831, 298.152 107.594 C 299.643 108.515, 302 105.278, 302 102.309 C 302 100.068, 299.292 99.042, 297.667 100.667 M 317.667 100.667 C 316.563 101.771, 316.917 106.831, 318.152 107.594 C 319.643 108.515, 322 105.278, 322 102.309 C 322 100.068, 319.292 99.042, 317.667 100.667 M 384.627 101.529 C 383.665 104.037, 383.880 106.808, 385.096 107.559 C 386.589 108.482, 388.764 106.046, 389.168 103 C 389.423 101.083, 389.005 100.429, 387.377 100.197 C 386.125 100.018, 384.997 100.565, 384.627 101.529 M 419.583 101.643 C 419.237 102.547, 419.210 103.543, 419.524 103.858 C 420.264 104.598, 423.265 102.706, 423.774 101.179 C 424.386 99.341, 420.293 99.795, 419.583 101.643 M 271.128 131.445 C 268.724 132.224, 265.079 134.209, 263.028 135.858 L 259.299 138.854 257.145 136.701 L 254.991 134.547 251.889 137.649 C 248.080 141.458, 248.592 144.238, 253.533 146.583 C 256.658 148.066, 257.076 148.067, 258.543 146.600 C 260.937 144.205, 262.769 144.652, 264.532 148.061 C 265.807 150.528, 265.899 151.775, 265.006 154.481 C 264.397 156.329, 263.246 158.381, 262.449 159.042 C 260.846 160.373, 260.465 164, 261.929 164 C 262.439 164, 263.511 163.346, 264.310 162.548 C 265.108 161.749, 266.153 161.411, 266.631 161.798 C 267.109 162.184, 267.166 162.091, 266.759 161.592 C 265.994 160.656, 267.655 158, 269.006 158 C 269.904 158, 270.960 161.183, 271.604 165.831 C 271.980 168.547, 271.576 169.546, 269.411 171.248 C 266.509 173.532, 264 178.624, 264 182.233 C 264 185.641, 267.093 190.770, 270.500 193.012 L 273.500 194.987 266.500 194.985 C 257.541 194.983, 243.507 193.439, 234.273 191.439 C 228.176 190.119, 227.081 189.572, 227.273 187.947 C 227.459 186.364, 224.384 184.575, 210.061 177.937 C 196.372 171.594, 191.427 168.759, 187.061 164.756 C 168.094 147.363, 146.125 137.838, 121.532 136.345 C 102.001 135.159, 80.096 140.473, 63.078 150.525 C 46.792 160.146, 31.402 177.326, 22.995 195.273 C 15.969 210.271, 14.498 217.861, 14.517 239 C 14.531 253.807, 14.898 258.797, 16.356 264 C 26.163 299.012, 50.292 325.097, 83 336.047 C 107.743 344.330, 139.009 342.137, 162 330.506 C 173.803 324.535, 180.543 318.673, 214.781 284.606 L 250.063 249.501 262.281 262.030 C 269.002 268.921, 282.600 282.903, 292.500 293.102 C 321.051 322.515, 334.463 331.733, 358 338.121 C 367.667 340.744, 388.955 341.745, 399.727 340.082 C 447.142 332.760, 483.134 293.072, 485.693 245.285 C 487.132 218.426, 479.490 194.159, 463.234 173.966 C 450.049 157.587, 430.320 144.874, 409.500 139.341 C 400.655 136.991, 397.652 136.684, 383.500 136.687 C 370.364 136.690, 366.122 137.067, 359.802 138.791 C 349.051 141.725, 338.354 146.155, 330.491 150.932 C 326.808 153.170, 323.659 155, 323.491 155 C 323.324 155, 323.415 154.130, 323.693 153.066 C 324.534 149.849, 322.084 144.281, 318.404 141.050 C 311.888 135.329, 301.376 137.851, 298.025 145.939 C 295.108 152.982, 287.687 147.071, 288.180 138.096 C 288.370 134.622, 287.995 133.409, 286.406 132.353 C 283.309 130.297, 276.014 129.864, 271.128 131.445 M 302.313 143.488 C 297.704 148.096, 298.346 149.491, 305.093 149.537 C 311.606 149.582, 313.033 150.328, 312.767 153.550 C 312.554 156.113, 310.520 156.904, 309.677 154.750 C 309.115 153.313, 303.901 158.902, 304.356 160.454 C 304.510 160.979, 306.101 161.788, 307.891 162.252 C 312.187 163.365, 317.780 160.655, 320.329 156.225 C 322.781 151.963, 321.869 146.715, 318.003 142.850 C 315.683 140.529, 314.285 140, 310.477 140 C 306.468 140, 305.302 140.498, 302.313 143.488 M 272.415 143.740 C 269.482 145.146, 269.342 145.482, 269.579 150.544 C 269.715 153.473, 270.256 156.635, 270.779 157.570 C 271.672 159.165, 271.922 159.159, 274.771 157.476 C 277.395 155.926, 277.673 155.376, 276.799 153.459 C 276.125 151.979, 276.116 149.696, 276.772 146.619 C 277.865 141.495, 277.542 141.281, 272.415 143.740 M 287 147.500 C 287 148.875, 287.450 150, 288 150 C 288.550 150, 289 148.875, 289 147.500 C 289 146.125, 288.550 145, 288 145 C 287.450 145, 287 146.125, 287 147.500 M 293.750 150.662 C 294.438 150.940, 295.563 150.940, 296.250 150.662 C 296.938 150.385, 296.375 150.158, 295 150.158 C 293.625 150.158, 293.063 150.385, 293.750 150.662 M 299 151.500 C 299 151.775, 299.225 152, 299.500 152 C 299.775 152, 300 151.775, 300 151.500 C 300 151.225, 299.775 151, 299.500 151 C 299.225 151, 299 151.225, 299 151.500 M 303.414 153.250 C 303.366 154.488, 302.994 156.400, 302.587 157.500 C 302.122 158.756, 302.991 158.212, 304.923 156.038 C 308.591 151.911, 308.740 151, 305.750 151 C 304.109 151, 303.477 151.609, 303.414 153.250 M 375.466 152.118 C 352.698 154.145, 333.770 164.197, 313.500 185.026 L 306.500 192.219 311.500 191.541 C 314.250 191.168, 319.200 190.119, 322.500 189.210 C 331.477 186.737, 354.715 187.070, 366.127 189.835 C 388.380 195.226, 406.348 205.066, 422.135 220.509 C 441.783 239.728, 451.321 263.099, 448.101 284.135 C 447.416 288.609, 445.795 294.668, 444.499 297.599 C 441.570 304.222, 443.129 303.499, 450.633 294.754 C 457.210 287.089, 464.124 273.948, 467.603 262.500 C 470.046 254.459, 470.337 251.954, 470.329 239 C 470.321 227.249, 469.907 222.983, 468.144 216.500 C 456.776 174.699, 418.727 148.267, 375.466 152.118 M 103.816 152.677 C 102.890 152.921, 101.895 154.331, 101.605 155.811 C 101.090 158.433, 100.676 170.493, 100.895 176.500 L 101.004 179.500 114.252 179.581 C 138.925 179.731, 162.339 186.584, 182.769 199.634 C 185.668 201.485, 188.281 203, 188.578 203 C 189.481 203, 182.896 191.212, 181.140 189.685 C 179.082 187.894, 130.294 165, 128.537 165 C 125.832 165, 120.025 161.916, 118.951 159.909 C 118.334 158.756, 118.088 156.786, 118.403 155.530 C 118.889 153.595, 118.501 153.150, 115.863 152.623 C 112.472 151.944, 106.488 151.971, 103.816 152.677 M 314.500 155 C 314.160 155.550, 314.359 156, 314.941 156 C 315.523 156, 316 155.550, 316 155 C 316 154.450, 315.802 154, 315.559 154 C 315.316 154, 314.840 154.450, 314.500 155 M 85.262 157.008 C 77.497 159.768, 68.904 164.595, 62.331 169.888 L 56.500 174.583 56.221 188.458 C 55.727 212.985, 61.763 235.001, 74.535 255.259 L 78.166 261.018 80.833 259.113 C 87.157 254.594, 93.668 248.054, 100.009 239.849 L 106.804 231.057 103.361 223.092 C 96.200 206.529, 92.182 182.937, 93.425 164.750 C 94.190 153.560, 94.400 153.760, 85.262 157.008 M 290.500 158 C 292.081 159.650, 293.979 161, 294.718 161 C 295.458 161, 296.321 161.672, 296.636 162.494 C 296.952 163.316, 297.612 163.740, 298.105 163.435 C 298.597 163.131, 299.453 163.162, 300.008 163.505 C 301.253 164.275, 299.783 165.790, 294.882 168.787 C 289.919 171.823, 289.024 171.630, 289.667 167.664 L 290.209 164.328 283.162 163.164 C 274.238 161.690, 274.335 161.685, 273.584 163.641 C 272.508 166.446, 273.920 169.160, 276.096 168.469 C 279.014 167.544, 284.314 169.674, 287.585 173.088 C 290.071 175.683, 290.500 176.926, 290.500 181.543 L 290.500 186.956 301.191 176.304 L 311.881 165.652 306.691 163.750 C 303.836 162.703, 300.298 161.611, 298.829 161.322 C 297.095 160.980, 295.737 159.780, 294.958 157.898 C 294.003 155.592, 293.131 155, 290.692 155 L 287.626 155 290.500 158 M 296.168 157.469 C 296.786 158.826, 297.678 159.699, 298.149 159.408 C 299.178 158.772, 297.328 155, 295.986 155 C 295.444 155, 295.521 156.050, 296.168 157.469 M 277.662 157.669 C 276.100 158.487, 275.008 159.342, 275.235 159.568 C 275.461 159.794, 278.418 160.359, 281.806 160.822 C 288.372 161.720, 288.732 161.013, 283.327 157.841 C 280.792 156.354, 280.207 156.336, 277.662 157.669 M 273.456 171.467 C 268.496 173.581, 266.500 176.627, 266.500 182.082 C 266.500 185.992, 267.012 187.466, 269.093 189.547 C 276.187 196.642, 287.391 192.960, 288.714 183.099 C 289.829 174.784, 281.168 168.181, 273.456 171.467 M 276.171 181.648 C 276.645 184.112, 279.933 184.750, 279.576 182.308 C 279.430 181.314, 278.525 180.347, 277.565 180.159 C 276.328 179.918, 275.921 180.352, 276.171 181.648 M 43.331 190.229 C 33.967 204.316, 29.976 216.591, 29.264 233.500 C 28.545 250.576, 30.386 260.918, 36.676 275.133 L 39.168 280.766 45.256 278.922 C 51.740 276.959, 69.368 268.466, 70.973 266.532 C 71.625 265.747, 70.769 263.645, 68.314 260 C 57.020 243.230, 49.598 219.214, 48.141 194.729 L 47.500 183.957 43.331 190.229 M 101.625 191.250 C 102.658 198.015, 106.840 211.852, 110.315 220 C 113.358 227.138, 113.681 227.514, 117.006 227.785 C 139.234 229.597, 165.486 239.901, 184.067 254.105 C 189.028 257.897, 193.275 261, 193.505 261 C 196.281 261, 197.691 227.092, 195.212 219.956 C 194.430 217.705, 192.252 215.127, 189.241 212.886 C 165.789 195.439, 140.725 187.014, 112.238 187.004 L 100.976 187 101.625 191.250 M 333.750 192.716 C 332.238 192.945, 331 193.766, 331 194.541 C 331 195.897, 335.819 199, 337.925 199 C 338.830 199, 342 193.983, 342 192.550 C 342 191.961, 338.232 192.037, 333.750 192.716 M 342.647 195.614 C 341.741 197.514, 341 199.419, 341 199.849 C 341 200.526, 347.288 204, 348.514 204 C 348.759 204, 349.869 202.216, 350.982 200.036 C 352.975 196.128, 352.977 196.058, 351.069 195.037 C 345.240 191.917, 344.382 191.976, 342.647 195.614 M 328 194 C 328 194.733, 328.300 195.033, 328.667 194.667 C 329.033 194.300, 329.033 193.700, 328.667 193.333 C 328.300 192.967, 328 193.267, 328 194 M 352.333 193.667 C 352.700 194.033, 353.300 194.033, 353.667 193.667 C 354.033 193.300, 353.733 193, 353 193 C 352.267 193, 351.967 193.300, 352.333 193.667 M 356.010 194.231 C 356.016 194.929, 357.817 196.255, 360.014 197.177 C 363.840 198.784, 364.050 198.775, 365.026 196.952 C 365.883 195.350, 365.645 194.966, 363.522 194.525 C 362.135 194.236, 359.875 193.766, 358.500 193.481 C 356.871 193.143, 356.004 193.404, 356.010 194.231 M 223.235 196.384 C 222.189 198.680, 222.496 199.131, 227.807 203.096 C 230.938 205.433, 237.674 211.413, 242.776 216.382 L 252.051 225.419 264.546 212.959 L 277.040 200.500 262.270 199.824 C 249.524 199.241, 230.971 196.546, 225.928 194.546 C 224.872 194.127, 223.988 194.730, 223.235 196.384 M 194.524 196.634 C 197.420 203.170, 202.087 218.651, 203.076 225 C 204.637 235.023, 203.704 252.471, 201.073 262.456 C 199.920 266.831, 197.262 273.948, 195.166 278.270 L 191.355 286.129 215.177 262.323 L 238.999 238.517 218.250 217.695 C 197.752 197.126, 192.790 192.721, 194.524 196.634 M 316.987 198.032 C 315.529 201.551, 315.394 201.331, 320.257 203.347 L 324.013 204.904 325.538 201.255 C 327.589 196.347, 326.860 195, 322.153 195 C 318.742 195, 318.082 195.387, 316.987 198.032 M 366.607 197.582 C 365.739 199.845, 365.711 199.799, 368.950 201.474 C 373.031 203.585, 374.500 203.392, 375.783 200.578 C 376.789 198.370, 376.613 198.061, 373.794 197.078 C 369.493 195.579, 367.317 195.731, 366.607 197.582 M 312.244 197.664 C 311.553 197.943, 311.242 198.582, 311.553 199.085 C 312.403 200.460, 313.714 200.187, 314.362 198.500 C 314.950 196.965, 314.459 196.771, 312.244 197.664 M 352.567 201.125 C 351.659 203.393, 351.048 205.371, 351.208 205.520 C 351.369 205.668, 353.190 206.490, 355.255 207.346 L 359.009 208.902 361.074 204.854 C 362.210 202.628, 362.996 200.672, 362.820 200.508 C 362.466 200.179, 354.916 197, 354.486 197 C 354.338 197, 353.474 198.856, 352.567 201.125 M 327.685 201.534 C 326.758 203.478, 326 205.268, 326 205.514 C 326 205.759, 327.815 206.885, 330.032 208.017 L 334.065 210.074 335.984 205.787 L 337.903 201.501 334.701 199.792 C 330.205 197.393, 329.587 197.546, 327.685 201.534 M 377.123 201.629 C 376.464 203.075, 376.054 204.368, 376.213 204.502 C 377.110 205.262, 383.040 208, 383.790 208 C 384.549 208, 387 203.776, 387 202.466 C 387 201.976, 380.164 199, 379.038 199 C 378.644 199, 377.782 200.183, 377.123 201.629 M 303.635 202.073 C 300.048 204.894, 300.325 206.691, 304.622 208.487 C 306.614 209.319, 308.405 210, 308.602 210 C 308.798 210, 309.881 208.194, 311.007 205.986 L 313.055 201.971 310.462 200.986 C 306.950 199.650, 306.655 199.697, 303.635 202.073 M 362.725 206.017 L 361.147 210.035 365.034 212.017 C 367.171 213.108, 369.114 214, 369.352 214 C 369.889 214, 373.192 205.842, 372.792 205.502 C 371.890 204.736, 365.960 202, 365.201 202 C 364.707 202, 363.593 203.808, 362.725 206.017 M 312.685 206.534 C 311.758 208.478, 311 210.419, 311 210.849 C 311 211.526, 317.288 215, 318.514 215 C 318.759 215, 319.872 213.211, 320.988 211.024 L 323.016 207.049 319.048 205.024 C 316.865 203.911, 314.920 203, 314.725 203 C 314.530 203, 313.612 204.590, 312.685 206.534 M 337.685 206.534 C 336.758 208.478, 336 210.272, 336 210.521 C 336 211.014, 342.812 214, 343.937 214 C 344.573 214, 348 207.603, 348 206.415 C 348 205.836, 341.537 203, 340.217 203 C 339.752 203, 338.612 204.590, 337.685 206.534 M 387.517 205.968 L 385.976 208.947 390.085 211.043 C 392.345 212.196, 394.314 212.996, 394.461 212.820 C 395.051 212.116, 397 208.097, 397 207.586 C 397 207.286, 395.213 206.129, 393.029 205.015 L 389.057 202.989 387.517 205.968 M 293.105 210.201 C 290.053 213.186, 289.951 213.491, 291.612 214.705 C 293.710 216.240, 294.302 215.746, 296.356 210.750 C 298.244 206.159, 297.387 206.015, 293.105 210.201 M 348.024 210.952 C 346.911 213.135, 346 215.114, 346 215.352 C 346 215.889, 354.158 219.192, 354.498 218.792 C 355.053 218.139, 358 212.061, 358 211.570 C 358 211.279, 356.211 210.128, 354.024 209.012 L 350.049 206.984 348.024 210.952 M 373.086 210.832 L 371.130 214.665 375.479 216.777 L 379.827 218.890 381.413 214.925 C 382.286 212.744, 383 210.721, 383 210.429 C 383 209.927, 376.643 207, 375.552 207 C 375.271 207, 374.161 208.725, 373.086 210.832 M 324 208.378 C 324 208.586, 323.323 210.376, 322.496 212.355 L 320.992 215.955 325.093 218.047 C 327.348 219.198, 329.276 219.996, 329.377 219.820 C 330.454 217.935, 333.017 211.694, 332.793 211.503 C 330.701 209.724, 324 207.343, 324 208.378 M 297.685 212.534 C 296.758 214.478, 296 216.268, 296 216.514 C 296 216.759, 297.815 217.885, 300.032 219.017 L 304.065 221.074 305.984 216.787 L 307.903 212.501 304.701 210.792 C 300.205 208.393, 299.587 208.546, 297.685 212.534 M 397.560 211.618 C 397.198 213.058, 397.060 214.394, 397.253 214.586 C 398.315 215.649, 404.842 217.825, 405.373 217.294 C 406.836 215.830, 405.798 212.993, 403.096 211.068 C 399.299 208.365, 398.353 208.459, 397.560 211.618 M 383.624 214.661 C 381.379 219.370, 381.521 219.902, 385.468 221.551 C 389.944 223.421, 389.699 223.482, 391.474 220.050 C 393.724 215.700, 393.385 214.670, 389.114 212.877 L 385.249 211.255 383.624 214.661 M 358.526 214.950 C 356.282 219.289, 356.609 220.443, 360.624 222.358 C 362.617 223.308, 364.360 223.954, 364.497 223.793 C 365.246 222.912, 368 216.970, 368 216.235 C 368 215.499, 361.796 212, 360.492 212 C 360.250 212, 359.365 213.328, 358.526 214.950 M 332.781 216.876 L 331.258 220.753 334.663 222.376 C 336.536 223.269, 338.526 224, 339.085 224 C 340.039 224, 343.477 217.093, 342.809 216.519 C 341.908 215.746, 335.971 213, 335.201 213 C 334.707 213, 333.618 214.744, 332.781 216.876 M 307.642 217.624 C 306.692 219.617, 306.046 221.360, 306.207 221.497 C 307.088 222.246, 313.030 225, 313.765 225 C 314.501 225, 318 218.796, 318 217.492 C 318 216.778, 312.220 214, 310.735 214 C 309.984 214, 308.593 215.631, 307.642 217.624 M 407.617 216.556 C 406.724 218.882, 406.648 218.780, 410.946 220.972 C 417.472 224.302, 416.820 221.406, 409.867 216.177 C 408.535 215.176, 408.120 215.246, 407.617 216.556 M 285.744 218.857 C 283.444 222.750, 283.534 223.467, 286.492 224.815 C 288.818 225.874, 289.123 225.678, 291.062 221.878 C 293.398 217.299, 293.417 217.394, 289.991 216.534 C 287.945 216.020, 287.168 216.445, 285.744 218.857 M 393.685 219.534 C 392.758 221.478, 392 223.419, 392 223.849 C 392 224.526, 398.288 228, 399.514 228 C 399.759 228, 400.872 226.211, 401.988 224.024 L 404.016 220.049 400.048 218.024 C 397.865 216.911, 395.920 216, 395.725 216 C 395.530 216, 394.612 217.590, 393.685 219.534 M 343.657 220.594 C 341.376 225.376, 341.512 225.898, 345.468 227.551 C 349.944 229.421, 349.699 229.482, 351.474 226.050 C 353.646 221.850, 353.454 221.272, 349.157 219.080 L 345.314 217.119 343.657 220.594 M 368.449 220.468 C 366.467 225.210, 366.494 225.279, 371.025 227.182 L 375.030 228.864 376.515 225.310 C 378.507 220.543, 378.451 220.285, 375.050 218.526 C 370.842 216.350, 370.075 216.575, 368.449 220.468 M 317.975 222.049 L 315.984 225.951 320.089 228.045 C 322.347 229.197, 324.318 229.996, 324.470 229.820 C 325.247 228.919, 328 222.978, 328 222.201 C 328 221.707, 326.192 220.593, 323.983 219.725 L 319.965 218.147 317.975 222.049 M 292.725 223.017 L 291.147 227.035 295.171 229.087 C 297.383 230.216, 299.328 230.996, 299.492 230.820 C 300.081 230.188, 303.020 222.688, 302.763 222.474 C 301.853 221.715, 295.942 219, 295.201 219 C 294.707 219, 293.593 220.808, 292.725 223.017 M 270.079 229.421 L 261.702 237.842 267.101 244.632 L 272.500 251.423 273.172 243.357 C 273.900 234.632, 275.386 228.094, 277.631 223.750 C 278.412 222.238, 278.917 221, 278.754 221 C 278.590 221, 274.686 224.789, 270.079 229.421 M 403.685 224.534 C 402.758 226.478, 402 228.268, 402 228.514 C 402 228.759, 403.789 229.872, 405.976 230.988 L 409.951 233.016 412.045 228.911 C 413.197 226.653, 413.996 224.682, 413.820 224.530 C 412.939 223.770, 406.987 221, 406.235 221 C 405.759 221, 404.612 222.590, 403.685 224.534 M 353.685 225.534 C 352.758 227.478, 352 229.419, 352 229.849 C 352 230.526, 358.288 234, 359.514 234 C 359.759 234, 360.872 232.211, 361.988 230.024 L 364.016 226.049 360.048 224.024 C 357.865 222.911, 355.920 222, 355.725 222 C 355.530 222, 354.612 223.590, 353.685 225.534 M 378.685 225.534 C 377.758 227.478, 377 229.268, 377 229.514 C 377 229.759, 378.812 230.884, 381.027 232.014 L 385.053 234.068 386.893 229.784 L 388.734 225.500 385.617 223.792 C 381.229 221.387, 380.586 221.549, 378.685 225.534 M 328.526 225.950 C 326.243 230.365, 326.628 231.636, 330.750 233.294 L 334.500 234.802 336.208 231.651 C 338.611 227.219, 338.452 226.586, 334.466 224.685 C 329.991 222.551, 330.320 222.481, 328.526 225.950 M 417 223.500 C 417 223.775, 417.225 224, 417.500 224 C 417.775 224, 418 223.775, 418 223.500 C 418 223.225, 417.775 223, 417.500 223 C 417.225 223, 417 223.225, 417 223.500 M 303.086 227.832 L 301.130 231.665 305.479 233.777 L 309.827 235.890 311.413 231.925 C 312.286 229.744, 313 227.721, 313 227.429 C 313 226.927, 306.643 224, 305.552 224 C 305.271 224, 304.161 225.725, 303.086 227.832 M 281.177 228.387 C 279.767 232.287, 279.660 235, 280.918 235 C 281.423 235, 282.458 235.239, 283.219 235.530 C 284.094 235.866, 285.223 234.755, 286.300 232.496 C 288.446 227.996, 288.507 228.313, 285.177 226.592 C 282.413 225.162, 282.330 225.200, 281.177 228.387 M 413.781 229.876 L 412.258 233.753 415.663 235.376 C 417.536 236.269, 419.497 237, 420.021 237 C 420.888 237, 424.377 229.985, 423.763 229.474 C 422.853 228.715, 416.942 226, 416.201 226 C 415.707 226, 414.618 227.744, 413.781 229.876 M 363.685 230.534 C 361.395 235.337, 361.444 235.478, 366.017 237.275 L 370.035 238.853 372.025 234.951 L 374.016 231.049 370.048 229.024 C 367.865 227.911, 365.920 227, 365.725 227 C 365.530 227, 364.612 228.590, 363.685 230.534 M 388.685 230.534 C 387.758 232.478, 387 234.209, 387 234.382 C 387 235.010, 395.033 238.300, 395.478 237.855 C 395.730 237.603, 396.626 235.745, 397.470 233.725 C 399.002 230.058, 399.001 230.052, 396.052 228.527 C 391.726 226.290, 390.557 226.608, 388.685 230.534 M 313.624 231.661 C 311.379 236.370, 311.521 236.902, 315.468 238.551 C 319.944 240.421, 319.699 240.482, 321.474 237.050 C 323.724 232.700, 323.385 231.670, 319.114 229.877 L 315.249 228.255 313.624 231.661 M 338.513 231.622 C 337.681 233.614, 337 235.405, 337 235.602 C 337 235.798, 338.812 236.884, 341.027 238.014 L 345.053 240.068 346.893 235.784 L 348.734 231.500 345.617 229.792 C 341.130 227.333, 340.206 227.571, 338.513 231.622 M 288.526 231.950 C 286.282 236.289, 286.609 237.443, 290.624 239.358 C 292.617 240.308, 294.360 240.954, 294.497 240.793 C 295.246 239.912, 298 233.970, 298 233.235 C 298 232.499, 291.796 229, 290.492 229 C 290.250 229, 289.365 230.328, 288.526 231.950 M 398.975 235.049 L 396.984 238.951 401.089 241.045 C 403.347 242.197, 405.318 242.996, 405.470 242.820 C 406.247 241.919, 409 235.978, 409 235.201 C 409 234.707, 407.192 233.593, 404.983 232.725 L 400.965 231.147 398.975 235.049 M 375 232.378 C 375 232.586, 374.324 234.374, 373.498 236.351 C 372.005 239.924, 372.014 239.956, 374.948 241.473 C 379.290 243.718, 380.443 243.392, 382.358 239.376 C 383.308 237.383, 383.954 235.640, 383.793 235.503 C 381.701 233.724, 375 231.343, 375 232.378 M 424.161 234.547 C 422.447 238.309, 422.661 238.871, 426.510 240.706 C 431.819 243.238, 433.036 241.278, 429.371 236.100 C 427.792 233.868, 426.235 232.033, 425.911 232.021 C 425.586 232.010, 424.799 233.146, 424.161 234.547 M 323.685 236.534 C 322.758 238.478, 322 240.419, 322 240.849 C 322 241.526, 328.288 245, 329.514 245 C 329.759 245, 330.872 243.211, 331.988 241.024 L 334.016 237.049 330.048 235.024 C 327.865 233.911, 325.920 233, 325.725 233 C 325.530 233, 324.612 234.590, 323.685 236.534 M 348.685 236.534 C 347.758 238.478, 347 240.209, 347 240.382 C 347 241.010, 355.033 244.300, 355.478 243.855 C 355.730 243.603, 356.628 241.740, 357.475 239.715 L 359.013 236.032 355.385 234.516 C 350.556 232.499, 350.619 232.480, 348.685 236.534 M 298.449 237.468 C 296.472 242.199, 296.503 242.283, 300.886 244.123 L 304.751 245.745 306.376 242.339 C 308.559 237.761, 308.468 237.293, 305.050 235.526 C 300.842 233.350, 300.075 233.575, 298.449 237.468 M 108.627 241.482 C 95.170 259.808, 74.212 275.957, 52.641 284.620 C 47.819 286.556, 44.627 288.394, 44.811 289.128 C 45.705 292.686, 57.691 304.742, 66.193 310.634 L 69.964 313.247 78.581 310.560 C 89.780 307.069, 105.562 298.960, 115.004 291.847 C 129.812 280.691, 143.475 264.950, 150.556 250.889 L 153.918 244.213 148.209 242.174 C 139.789 239.166, 136.394 238.259, 127.140 236.547 C 113.953 234.107, 114.063 234.078, 108.627 241.482 M 278.619 239.154 C 277.192 246.290, 278.720 248.375, 281.474 243.050 C 283.454 239.222, 283.398 238.283, 281.119 237.064 C 279.504 236.200, 279.151 236.495, 278.619 239.154 M 408.983 240.032 L 406.926 244.065 411.213 245.984 L 415.499 247.903 417.208 244.701 C 418.147 242.941, 418.935 241.021, 418.958 240.435 C 418.993 239.556, 413.003 236, 411.486 236 C 411.241 236, 410.115 237.815, 408.983 240.032 M 359.024 240.952 C 357.911 243.135, 357 245.114, 357 245.352 C 357 245.889, 365.158 249.192, 365.498 248.792 C 366.053 248.139, 369 242.061, 369 241.570 C 369 241.279, 367.211 240.128, 365.024 239.012 L 361.049 236.984 359.024 240.952 M 383.877 240.886 L 382.255 244.751 385.661 246.376 C 387.535 247.269, 389.497 248, 390.021 248 C 390.802 248, 394 241.834, 394 240.327 C 394 239.822, 387.422 236.995, 386.282 237.010 C 385.852 237.016, 384.770 238.760, 383.877 240.886 M 333.685 241.534 C 332.758 243.478, 332 245.268, 332 245.514 C 332 245.759, 333.789 246.872, 335.976 247.988 L 339.951 250.016 342.045 245.911 C 343.197 243.653, 343.996 241.672, 343.820 241.508 C 343.505 241.215, 335.939 238, 335.563 238 C 335.457 238, 334.612 239.590, 333.685 241.534 M 283.685 242.534 C 282.758 244.478, 282 246.419, 282 246.849 C 282 247.526, 288.288 251, 289.514 251 C 289.759 251, 290.872 249.211, 291.988 247.024 L 294.016 243.049 290.048 241.024 C 287.865 239.911, 285.920 239, 285.725 239 C 285.530 239, 284.612 240.590, 283.685 242.534 M 308.685 242.534 C 307.758 244.478, 307 246.268, 307 246.514 C 307 246.759, 308.812 247.884, 311.027 249.014 L 315.053 251.068 316.893 246.784 L 318.734 242.500 315.617 240.792 C 311.229 238.387, 310.586 238.549, 308.685 242.534 M 394.624 244.661 C 392.379 249.370, 392.521 249.902, 396.468 251.551 C 400.944 253.421, 400.699 253.482, 402.474 250.050 C 404.724 245.700, 404.385 244.670, 400.114 242.877 L 396.249 241.255 394.624 244.661 M 419.449 244.468 C 418.652 246.375, 418 248.166, 418 248.448 C 418 248.729, 419.792 249.873, 421.982 250.991 L 425.964 253.022 427.482 249.389 C 429.510 244.534, 429.459 244.289, 426.050 242.526 C 421.842 240.350, 421.075 240.575, 419.449 244.468 M 369.012 245.976 L 366.984 249.951 371.089 252.045 C 373.347 253.197, 375.318 253.996, 375.470 253.820 C 376.230 252.939, 379 246.987, 379 246.235 C 379 245.498, 372.794 242, 371.486 242 C 371.241 242, 370.128 243.789, 369.012 245.976 M 433 243 C 433 243.733, 433.300 244.033, 433.667 243.667 C 434.033 243.300, 434.033 242.700, 433.667 242.333 C 433.300 241.967, 433 242.267, 433 243 M 343.727 247.013 L 342.150 251.026 345.026 252.513 C 349.285 254.716, 350.450 254.376, 352.358 250.376 C 353.308 248.383, 353.954 246.640, 353.793 246.503 C 352.891 245.737, 346.961 243, 346.201 243 C 345.707 243, 344.594 244.806, 343.727 247.013 M 293.685 247.534 C 291.395 252.337, 291.444 252.478, 296.017 254.275 L 300.035 255.853 302.025 251.951 L 304.016 248.049 300.048 246.024 C 297.865 244.911, 295.920 244, 295.725 244 C 295.530 244, 294.612 245.590, 293.685 247.534 M 318.685 247.534 C 317.758 249.478, 317 251.209, 317 251.382 C 317 252.010, 325.033 255.300, 325.478 254.855 C 325.730 254.603, 326.626 252.745, 327.470 250.725 C 329.002 247.058, 329.001 247.052, 326.052 245.527 C 321.726 243.290, 320.557 243.608, 318.685 247.534 M 404.685 249.534 C 403.758 251.478, 403 253.419, 403 253.849 C 403 254.526, 409.288 258, 410.514 258 C 410.759 258, 411.872 256.211, 412.988 254.024 L 415.016 250.049 411.048 248.024 C 408.865 246.911, 406.920 246, 406.725 246 C 406.530 246, 405.612 247.590, 404.685 249.534 M 429.513 249.622 C 428.681 251.614, 428 253.346, 428 253.470 C 428 253.595, 429.834 254.523, 432.076 255.534 C 435.565 257.108, 436.283 257.166, 437.061 255.936 C 438.729 253.300, 438.098 249.182, 435.777 247.557 C 432.441 245.220, 431.179 245.636, 429.513 249.622 M 354.196 251.249 L 352.315 255.500 355.407 257.208 C 359.862 259.669, 360.927 259.419, 362.551 255.532 C 363.348 253.625, 364 251.834, 364 251.552 C 364 251.271, 362.217 250.131, 360.038 249.019 L 356.076 246.998 354.196 251.249 M 379.526 249.950 C 377.276 254.300, 377.615 255.330, 381.886 257.123 L 385.751 258.745 387.376 255.339 C 389.621 250.630, 389.479 250.098, 385.532 248.449 C 381.056 246.579, 381.301 246.518, 379.526 249.950 M 156.123 255.936 C 146.528 273.261, 132.515 288.868, 116.294 300.295 C 109.461 305.108, 93.621 313.398, 83 317.718 C 80.681 318.662, 80.990 318.888, 87.274 320.842 C 96.388 323.678, 110.075 325.298, 117.945 324.474 C 131.628 323.041, 148.071 317.175, 158.480 310.013 C 170.291 301.888, 183.828 285.790, 189.428 273.213 L 191.337 268.927 187.918 265.947 C 180.542 259.518, 163.335 247.968, 161.206 248.016 C 160.818 248.025, 158.530 251.589, 156.123 255.936 M 328.975 252.049 L 326.984 255.951 331.089 258.045 C 333.347 259.197, 335.318 259.996, 335.470 259.820 C 336.247 258.919, 339 252.978, 339 252.201 C 339 251.707, 337.192 250.593, 334.983 249.725 L 330.965 248.147 328.975 252.049 M 305 249.378 C 305 249.586, 304.324 251.374, 303.498 253.351 C 302.005 256.924, 302.014 256.956, 304.948 258.473 C 309.290 260.718, 310.443 260.392, 312.358 256.376 C 313.308 254.383, 313.954 252.640, 313.793 252.503 C 311.701 250.724, 305 248.343, 305 249.378 M 279.667 250.667 C 278.277 252.057, 279.080 257.080, 281 259 C 283.961 261.961, 285.515 261.461, 287.275 256.983 L 288.853 252.965 285.304 251.483 C 281.317 249.817, 280.618 249.716, 279.667 250.667 M 414.685 254.534 C 413.758 256.478, 413 258.268, 413 258.514 C 413 258.759, 414.789 259.872, 416.976 260.988 L 420.951 263.016 423.045 258.911 C 424.197 256.653, 424.996 254.672, 424.820 254.508 C 424.505 254.215, 416.939 251, 416.563 251 C 416.457 251, 415.612 252.590, 414.685 254.534 M 364.660 255.587 C 362.429 260.266, 362.460 260.372, 366.704 262.396 C 370.264 264.094, 370.460 264.091, 371.748 262.331 C 373.222 260.316, 374.482 256.149, 373.819 255.485 C 373.587 255.254, 371.805 254.399, 369.858 253.585 L 366.320 252.107 364.660 255.587 M 389.513 255.622 C 388.681 257.614, 388 259.405, 388 259.602 C 388 259.798, 389.812 260.884, 392.027 262.014 L 396.053 264.068 397.893 259.784 L 399.734 255.500 396.617 253.792 C 392.130 251.333, 391.206 251.571, 389.513 255.622 M 339.012 256.976 L 336.984 260.951 341.089 263.045 C 343.347 264.197, 345.318 264.996, 345.470 264.820 C 346.230 263.939, 349 257.987, 349 257.235 C 349 256.498, 342.794 253, 341.486 253 C 341.241 253, 340.128 254.789, 339.012 256.976 M 289.024 257.952 C 287.911 260.135, 287 262.114, 287 262.352 C 287 262.889, 295.158 266.192, 295.498 265.792 C 296.053 265.139, 299 259.061, 299 258.570 C 299 258.279, 297.211 257.128, 295.024 256.012 L 291.049 253.984 289.024 257.952 M 313.877 257.886 L 312.255 261.751 315.661 263.376 C 317.535 264.269, 319.497 265, 320.021 265 C 320.802 265, 324 258.834, 324 257.327 C 324 256.822, 317.422 253.995, 316.282 254.010 C 315.852 254.016, 314.770 255.760, 313.877 257.886 M 438.615 256.561 C 438.216 257.601, 438.466 258.672, 439.216 259.138 C 440.845 260.150, 441.426 258.583, 440.220 256.428 C 439.377 254.922, 439.240 254.933, 438.615 256.561 M 424.685 259.534 C 423.758 261.478, 423 263.301, 423 263.585 C 423 264.164, 429.463 267, 430.783 267 C 431.510 267, 435 260.776, 435 259.479 C 435 258.986, 428.188 256, 427.063 256 C 426.682 256, 425.612 257.590, 424.685 259.534 M 374.685 260.534 C 372.395 265.337, 372.444 265.478, 377.017 267.275 L 381.035 268.853 383.025 264.951 L 385.016 261.049 381.048 259.024 C 378.865 257.911, 376.920 257, 376.725 257 C 376.530 257, 375.612 258.590, 374.685 260.534 M 399.642 260.624 C 398.692 262.617, 398.046 264.360, 398.207 264.497 C 399.109 265.263, 405.039 268, 405.799 268 C 406.293 268, 407.406 266.194, 408.273 263.987 L 409.850 259.974 406.974 258.487 C 402.715 256.284, 401.550 256.624, 399.642 260.624 M 324.624 261.661 C 322.441 266.239, 322.532 266.707, 325.950 268.474 C 330.158 270.650, 330.925 270.425, 332.551 266.532 C 334.528 261.801, 334.497 261.717, 330.114 259.877 L 326.249 258.255 324.624 261.661 M 349.526 260.950 C 347.354 265.150, 347.546 265.728, 351.843 267.920 L 355.686 269.881 357.343 266.406 C 359.561 261.755, 359.475 261.297, 356.050 259.526 C 351.976 257.419, 351.272 257.573, 349.526 260.950 M 299.012 262.976 L 296.984 266.951 301.089 269.045 C 303.347 270.197, 305.318 270.996, 305.470 270.820 C 306.230 269.939, 309 263.987, 309 263.235 C 309 262.498, 302.794 259, 301.486 259 C 301.241 259, 300.128 260.789, 299.012 262.976 M 435.111 264.203 L 433.264 268.500 436.725 270.321 C 441.180 272.667, 443.004 271.927, 442.985 267.781 C 442.967 263.916, 442.292 262.717, 439.229 261.103 C 437.114 259.989, 436.831 260.202, 435.111 264.203 M 409.926 265.146 C 408.790 267.372, 408.004 269.328, 408.180 269.492 C 408.534 269.821, 416.084 273, 416.514 273 C 416.948 273, 420.112 264.777, 419.792 264.480 C 419.631 264.332, 417.810 263.510, 415.745 262.654 L 411.991 261.098 409.926 265.146 M 384.685 265.534 C 383.758 267.478, 383 269.266, 383 269.508 C 383 270.222, 388.780 273, 390.265 273 C 391.452 273, 395.577 266.170, 394.793 265.503 C 393.912 264.754, 387.970 262, 387.235 262 C 386.759 262, 385.612 263.590, 384.685 265.534 M 334.685 266.534 C 333.758 268.478, 333 270.419, 333 270.849 C 333 271.524, 339.286 275, 340.508 275 C 341.222 275, 344 269.220, 344 267.735 C 344 266.692, 338.270 263, 336.651 263 C 336.497 263, 335.612 264.590, 334.685 266.534 M 359.685 266.534 C 358.758 268.478, 358 270.301, 358 270.585 C 358 271.172, 364.472 274, 365.816 274 C 366.300 274, 367.382 272.256, 368.219 270.124 L 369.742 266.247 366.337 264.624 C 361.759 262.440, 361.618 262.481, 359.685 266.534 M 309.526 266.950 C 307.276 271.300, 307.615 272.330, 311.886 274.123 L 315.751 275.745 317.376 272.339 C 319.621 267.630, 319.479 267.098, 315.532 265.449 C 311.056 263.579, 311.301 263.518, 309.526 266.950 M 289.466 267.964 C 292.103 270.717, 294 271.137, 294 268.967 C 294 268.079, 288.848 265, 287.363 265 C 286.957 265, 287.904 266.334, 289.466 267.964 M 420.012 269.976 L 417.984 273.951 422.089 276.045 C 424.347 277.197, 426.318 277.996, 426.470 277.820 C 427.230 276.939, 430 270.987, 430 270.235 C 430 269.498, 423.794 266, 422.486 266 C 422.241 266, 421.128 267.789, 420.012 269.976 M 370.024 270.952 C 368.911 273.135, 368 275.095, 368 275.308 C 368 275.986, 376 279.333, 376.478 278.855 C 376.730 278.603, 377.627 276.743, 378.472 274.721 L 380.008 271.045 376.028 269.014 L 372.049 266.984 370.024 270.952 M 394.781 270.876 L 393.258 274.753 396.663 276.376 C 398.536 277.269, 400.419 278, 400.849 278 C 401.549 278, 405 271.694, 405 270.415 C 405 269.828, 398.528 267, 397.184 267 C 396.700 267, 395.618 268.744, 394.781 270.876 M 344.685 271.534 C 343.758 273.478, 343 275.268, 343 275.514 C 343 275.759, 344.789 276.872, 346.976 277.988 L 350.951 280.016 352.984 276.032 L 355.016 272.049 351.048 270.024 C 348.865 268.911, 346.920 268, 346.725 268 C 346.530 268, 345.612 269.590, 344.685 271.534 M 295.457 271.137 C 294.957 272.711, 295.590 274.043, 297.947 276.374 C 301.016 279.409, 301.150 279.444, 302.554 277.559 C 303.849 275.820, 304.583 272, 303.622 272 C 303.414 272, 301.643 271.331, 299.685 270.513 C 296.293 269.096, 296.095 269.125, 295.457 271.137 M 319.449 272.468 C 318.652 274.375, 318 276.166, 318 276.448 C 318 276.729, 319.783 277.869, 321.962 278.981 L 325.924 281.002 327.804 276.751 L 329.685 272.500 326.593 270.792 C 322.138 268.331, 321.073 268.581, 319.449 272.468 M 405.196 275.249 L 403.315 279.500 406.407 281.208 C 410.863 283.669, 411.794 283.428, 413.487 279.378 C 414.319 277.386, 415 275.595, 415 275.398 C 415 275.202, 413.217 274.131, 411.038 273.019 L 407.076 270.998 405.196 275.249 M 430.526 273.950 C 428.354 278.150, 428.546 278.728, 432.843 280.920 L 436.686 282.881 438.343 279.406 C 440.624 274.624, 440.488 274.102, 436.532 272.449 C 432.056 270.579, 432.301 270.518, 430.526 273.950 M 380.012 275.976 L 377.984 279.951 382.089 282.045 C 384.347 283.197, 386.318 283.996, 386.470 283.820 C 387.230 282.939, 390 276.987, 390 276.235 C 390 275.498, 383.794 272, 382.486 272 C 382.241 272, 381.128 273.789, 380.012 275.976 M 354.685 276.534 C 353.758 278.478, 353 280.301, 353 280.585 C 353 281.164, 359.463 284, 360.783 284 C 361.615 284, 365.365 276.990, 364.793 276.503 C 363.912 275.754, 357.970 273, 357.235 273 C 356.759 273, 355.612 274.590, 354.685 276.534 M 304.685 277.534 C 303.758 279.478, 303 281.284, 303 281.549 C 303 282.152, 309.241 285.991, 310.230 285.996 C 310.631 285.998, 311.872 284.211, 312.988 282.024 L 315.016 278.049 311.048 276.024 C 308.865 274.911, 306.920 274, 306.725 274 C 306.530 274, 305.612 275.590, 304.685 277.534 M 329.642 277.624 C 328.692 279.617, 328.046 281.360, 328.207 281.497 C 329.109 282.263, 335.039 285, 335.799 285 C 336.293 285, 337.406 283.194, 338.273 280.987 L 339.850 276.974 336.974 275.487 C 332.715 273.284, 331.550 273.624, 329.642 277.624 M 415.685 279.534 C 414.758 281.478, 414 283.419, 414 283.849 C 414 284.549, 420.306 288, 421.585 288 C 422.164 288, 425 281.537, 425 280.217 C 425 279.547, 418.820 276, 417.651 276 C 417.497 276, 416.612 277.590, 415.685 279.534 M 440.394 279.600 C 439.006 282.922, 439.029 283.301, 440.695 284.525 C 442.233 285.655, 442.601 285.603, 443.180 284.176 C 444.259 281.515, 444.103 276, 442.949 276 C 442.371 276, 441.221 277.620, 440.394 279.600 M 365.107 281.216 L 363.266 285.500 366.383 287.208 C 370.870 289.667, 371.794 289.429, 373.487 285.378 C 374.319 283.386, 375 281.595, 375 281.398 C 375 281.202, 373.188 280.116, 370.973 278.986 L 366.947 276.932 365.107 281.216 M 390.019 280.962 L 387.998 284.924 392.249 286.804 L 396.500 288.685 398.208 285.593 C 400.669 281.137, 400.428 280.206, 396.378 278.513 C 394.386 277.681, 392.595 277, 392.398 277 C 392.202 277, 391.131 278.783, 390.019 280.962 M 339.926 282.146 C 338.790 284.372, 338.004 286.328, 338.180 286.492 C 338.534 286.821, 346.084 290, 346.514 290 C 346.948 290, 350.112 281.777, 349.792 281.480 C 349.631 281.332, 347.810 280.510, 345.745 279.654 L 341.991 278.098 339.926 282.146 M 314.685 282.534 C 313.758 284.478, 313 286.268, 313 286.514 C 313 286.759, 314.789 287.872, 316.976 288.988 L 320.951 291.016 322.976 287.048 C 324.089 284.865, 325 282.886, 325 282.648 C 325 282.280, 317.506 279, 316.665 279 C 316.503 279, 315.612 280.590, 314.685 282.534 M 400.645 284.618 C 398.382 289.363, 398.482 289.695, 402.832 291.914 L 406.665 293.870 408.744 289.591 L 410.822 285.312 406.557 283.240 L 402.291 281.167 400.645 284.618 M 425.685 284.534 C 424.758 286.478, 424 288.268, 424 288.514 C 424 288.759, 425.789 289.872, 427.976 290.988 L 431.951 293.016 433.984 289.032 L 436.016 285.049 432.048 283.024 C 429.865 281.911, 427.920 281, 427.725 281 C 427.530 281, 426.612 282.590, 425.685 284.534 M 375.483 285.696 C 374.667 287.647, 374 289.633, 374 290.109 C 374 290.826, 380.258 294, 381.673 294 C 382.196 294, 385 287.413, 385 286.184 C 385 285.700, 383.192 284.593, 380.983 283.725 L 376.965 282.147 375.483 285.696 M 350.012 286.976 L 347.984 290.951 352.089 293.045 C 354.347 294.197, 356.318 294.996, 356.470 294.820 C 357.230 293.939, 360 287.987, 360 287.235 C 360 286.498, 353.794 283, 352.486 283 C 352.241 283, 351.128 284.789, 350.012 286.976 M 326 284.378 C 326 284.586, 325.322 286.378, 324.493 288.362 L 322.987 291.968 326.615 293.484 C 328.611 294.318, 330.556 295, 330.937 295 C 331.553 295, 335 288.620, 335 287.479 C 335 286.940, 328.137 284, 326.878 284 C 326.395 284, 326 284.170, 326 284.378 M 435.604 289.704 C 433.909 293.258, 433.911 293.462, 435.650 294.733 C 438.414 296.754, 440.172 295.874, 441.596 291.756 C 442.771 288.361, 442.716 287.918, 441.011 287.006 C 438.088 285.442, 437.496 285.737, 435.604 289.704 M 385.495 291.010 C 384.501 293.216, 383.893 295.226, 384.145 295.478 C 384.397 295.730, 386.255 296.626, 388.275 297.470 C 391.942 299.002, 391.948 299.001, 393.473 296.052 C 395.710 291.726, 395.392 290.557, 391.466 288.685 C 389.522 287.758, 387.791 287, 387.618 287 C 387.445 287, 386.490 288.805, 385.495 291.010 M 410.513 290.622 C 409.681 292.614, 409 294.346, 409 294.470 C 409 294.957, 417.037 298.288, 417.290 297.906 C 417.438 297.683, 418.337 295.791, 419.286 293.702 L 421.014 289.904 417.539 288.452 C 412.660 286.413, 412.215 286.551, 410.513 290.622 M 335.196 292.249 L 333.315 296.500 336.407 298.208 C 340.863 300.669, 341.794 300.428, 343.487 296.378 C 344.319 294.386, 345 292.595, 345 292.398 C 345 292.202, 343.217 291.131, 341.038 290.019 L 337.076 287.998 335.196 292.249 M 360.526 290.950 C 358.354 295.150, 358.546 295.728, 362.843 297.920 L 366.686 299.881 368.343 296.406 C 370.624 291.624, 370.488 291.102, 366.532 289.449 C 362.056 287.579, 362.301 287.518, 360.526 290.950 M 312 289.813 C 312 291.368, 317.844 296.214, 318.919 295.550 C 320.962 294.287, 319.995 292.368, 316.466 290.685 C 312.447 288.769, 312 288.681, 312 289.813 M 420.940 295.118 C 419.796 297.360, 419.004 299.328, 419.180 299.492 C 419.534 299.821, 427.084 303, 427.514 303 C 427.920 303, 431.128 294.774, 430.792 294.596 C 430.631 294.510, 428.817 293.676, 426.760 292.741 L 423.019 291.042 420.940 295.118 M 370.587 296.075 C 369.714 298.256, 369 300.279, 369 300.571 C 369 301.073, 375.357 304, 376.448 304 C 376.729 304, 377.839 302.275, 378.914 300.168 L 380.870 296.335 376.521 294.223 L 372.173 292.110 370.587 296.075 M 395.685 295.534 C 394.758 297.478, 394 299.268, 394 299.514 C 394 299.759, 395.789 300.872, 397.976 301.988 L 401.951 304.016 404.045 299.911 C 405.197 297.653, 405.996 295.682, 405.820 295.530 C 404.939 294.770, 398.987 292, 398.235 292 C 397.759 292, 396.612 293.590, 395.685 295.534 M 345.685 296.534 C 344.758 298.478, 344 300.419, 344 300.849 C 344 301.549, 350.306 305, 351.585 305 C 352.164 305, 355 298.537, 355 297.217 C 355 296.547, 348.820 293, 347.651 293 C 347.497 293, 346.612 294.590, 345.685 296.534 M 320.946 296.102 C 319.994 297.879, 320.249 298.650, 322.597 301.102 C 326.011 304.665, 327.342 304.740, 328.839 301.453 C 330.496 297.817, 330.388 297.556, 326.466 295.685 C 322.077 293.592, 322.297 293.576, 320.946 296.102 M 406.024 299.952 C 404.911 302.135, 404 304.157, 404 304.447 C 404 304.993, 410.717 308, 411.937 308 C 412.551 308, 416 301.622, 416 300.486 C 416 300.241, 414.211 299.128, 412.024 298.012 L 408.049 295.984 406.024 299.952 M 431.018 299.964 C 429.024 303.873, 429.023 303.942, 430.932 304.964 C 433.910 306.557, 434.469 306.289, 436.795 302.151 L 438.958 298.302 436.432 297.151 C 433.050 295.610, 433.308 295.477, 431.018 299.964 M 381.200 299.750 C 380.653 301.262, 379.915 303.211, 379.561 304.079 C 379.088 305.238, 379.996 306.145, 382.969 307.486 C 385.197 308.491, 387.142 309.130, 387.290 308.906 C 387.438 308.683, 388.324 306.817, 389.259 304.760 L 390.958 301.019 387.019 299.010 C 384.852 297.904, 382.881 297, 382.638 297 C 382.395 297, 381.748 298.238, 381.200 299.750 M 355.685 301.534 C 354.758 303.478, 354 305.268, 354 305.514 C 354 305.759, 355.789 306.872, 357.976 307.988 L 361.951 310.016 363.984 306.032 L 366.016 302.049 362.048 300.024 C 359.865 298.911, 357.920 298, 357.725 298 C 357.530 298, 356.612 299.590, 355.685 301.534 M 330.526 301.950 C 328.354 306.149, 328.546 306.728, 332.832 308.914 L 336.665 310.870 338.749 306.580 L 340.833 302.291 337.382 300.645 C 332.757 298.440, 332.296 298.527, 330.526 301.950 M 416.107 305.216 L 414.266 309.500 417.383 311.208 C 421.870 313.667, 422.794 313.429, 424.487 309.378 C 425.319 307.386, 426 305.595, 426 305.398 C 426 305.202, 424.188 304.116, 421.973 302.986 L 417.947 300.932 416.107 305.216 M 390.818 306.025 L 389.136 310.029 393.028 312.014 C 395.169 313.106, 397.114 314, 397.352 314 C 397.889 314, 401.192 305.842, 400.792 305.502 C 399.938 304.777, 393.984 302.001, 393.300 302.010 C 392.860 302.016, 391.743 303.822, 390.818 306.025 M 365.685 306.534 C 364.758 308.478, 364 310.266, 364 310.508 C 364 311.222, 369.780 314, 371.265 314 C 372.452 314, 376.577 307.170, 375.793 306.503 C 374.912 305.754, 368.970 303, 368.235 303 C 367.759 303, 366.612 304.590, 365.685 306.534 M 340.513 307.622 C 339.681 309.614, 339 311.346, 339 311.470 C 339 311.957, 347.037 315.288, 347.290 314.906 C 347.438 314.683, 348.337 312.791, 349.286 310.702 L 351.014 306.904 347.539 305.452 C 342.660 303.413, 342.215 303.551, 340.513 307.622 M 426.495 310.010 C 425.501 312.216, 424.901 314.234, 425.162 314.495 C 425.423 314.756, 427.176 313.382, 429.057 311.441 C 431.894 308.514, 432.223 307.752, 430.988 306.972 C 428.705 305.528, 428.434 305.711, 426.495 310.010 M 376.016 311.213 L 374.097 315.499 377.299 317.208 C 379.059 318.147, 380.979 318.935, 381.565 318.958 C 382.444 318.993, 386 313.003, 386 311.486 C 386 311.241, 384.185 310.115, 381.968 308.983 L 377.935 306.926 376.016 311.213 M 400.986 311.027 L 398.932 315.053 403.216 316.893 L 407.500 318.734 409.208 315.617 C 410.148 313.903, 410.935 312.021, 410.958 311.435 C 410.993 310.556, 405.003 307, 403.486 307 C 403.241 307, 402.116 308.812, 400.986 311.027 M 350.956 311.750 C 350.161 313.813, 349.377 315.781, 349.213 316.125 C 348.914 316.755, 357.019 320.333, 357.520 319.792 C 358.053 319.216, 361.021 311.690, 360.763 311.567 C 358.497 310.481, 352.866 308, 352.667 308 C 352.521 308, 351.751 309.688, 350.956 311.750 M 411.453 315.104 C 408.976 320.598, 410.384 321.889, 416.365 319.605 C 422.431 317.288, 422.713 315.745, 417.529 313.226 L 413.240 311.142 411.453 315.104 M 386.483 315.696 C 385.667 317.647, 385 319.633, 385 320.109 C 385 320.808, 391.242 324, 392.609 324 C 393.047 324, 396 317.061, 396 316.030 C 396 315.630, 394.192 314.593, 391.983 313.725 L 387.965 312.147 386.483 315.696 M 361.015 316.971 L 358.989 320.943 361.945 322.471 C 366.410 324.780, 367.951 324.363, 369.610 320.392 C 370.439 318.407, 370.978 316.665, 370.809 316.519 C 370.153 315.956, 364.072 313, 363.570 313 C 363.279 313, 362.129 314.787, 361.015 316.971 M 396.685 320.534 C 394.600 324.907, 394.601 325.001, 396.750 324.994 C 400.205 324.983, 406 322.881, 406 321.638 C 406 320.665, 400.193 317, 398.651 317 C 398.497 317, 397.612 318.590, 396.685 320.534 M 371.526 320.950 C 370.687 322.573, 370 324.097, 370 324.337 C 370 324.577, 372.088 325.086, 374.640 325.469 C 378.030 325.977, 379.508 325.806, 380.125 324.832 C 381.696 322.354, 381.013 321.032, 377.378 319.513 C 372.826 317.611, 373.314 317.491, 371.526 320.950 M 382.562 323.700 C 381.718 325.899, 382.248 326.179, 386.565 325.816 L 390.331 325.500 386.751 323.807 C 383.505 322.272, 383.113 322.262, 382.562 323.700 M 197.500 359.780 L 186.500 360.060 186.849 373.280 C 187.041 380.551, 187.671 387.078, 188.250 387.784 C 189.005 388.707, 192.007 388.989, 198.901 388.784 C 207.994 388.515, 208.517 388.381, 208.820 386.250 C 209.128 384.076, 208.866 384, 201.070 384 L 193 384 193 380 L 193 376 199.500 376 C 205.333 376, 206 375.795, 206 374 C 206 372.205, 205.333 372, 199.500 372 L 193 372 193 368.542 L 193 365.084 200.645 364.792 C 206.578 364.565, 208.532 364.114, 209.372 362.778 C 211.138 359.968, 209.211 359.482, 197.500 359.780 M 313.295 360.085 C 307.894 361.684, 305.356 367.370, 308.267 371.350 C 308.964 372.303, 312.439 374.135, 315.989 375.420 C 323.175 378.022, 325.121 379.945, 323.070 382.416 C 321.431 384.391, 315.387 384.436, 312 382.500 C 308.369 380.424, 306 380.627, 306 383.015 C 306 386.284, 311.581 388.992, 318.327 388.996 C 323.436 389, 324.514 388.640, 327.077 386.077 C 332.741 380.413, 330.230 375.266, 320 371.574 C 312.778 368.967, 311.301 366.731, 315.529 364.805 C 317.705 363.813, 319.006 363.877, 322.548 365.151 C 326.941 366.731, 328 366.304, 328 362.953 C 328 360.478, 318.336 358.593, 313.295 360.085 M 419.630 361.250 C 419.299 362.488, 419.021 364.512, 419.014 365.750 C 419.006 367.077, 418.385 368, 417.500 368 C 416.675 368, 416 368.675, 416 369.500 C 416 370.325, 416.675 371, 417.500 371 C 418.665 371, 419 372.326, 419 376.935 C 419 384.992, 420.145 387.563, 424.352 388.951 C 427.158 389.877, 428.537 389.803, 431.502 388.563 C 435.966 386.699, 435.708 384.359, 431.090 384.822 C 426.270 385.306, 425 383.649, 425 376.878 L 425 371 428.441 371 C 430.334 371, 432.104 370.641, 432.375 370.202 C 433.373 368.588, 431.340 367.072, 428.461 367.283 C 425.563 367.495, 425.507 367.409, 425.836 363.250 C 426.162 359.129, 426.082 359, 423.203 359 C 420.969 359, 420.084 359.557, 419.630 361.250 M 215 378 L 215 389 217.800 389 C 220.412 389, 220.682 388.604, 221.815 383.115 C 223.699 373.993, 228.465 369.263, 231 374 C 233.383 378.453, 237.923 374.496, 235.662 369.937 C 233.169 364.909, 225.234 366.946, 222.459 373.325 L 221.078 376.500 221.039 371.750 C 221.001 367.148, 220.907 367, 218 367 L 215 367 215 378 M 244.763 368.565 C 239.090 371.643, 237.088 381.299, 241.073 386.365 C 242.729 388.471, 243.996 389, 247.381 389 C 251.825 389, 254.023 387.831, 255.845 384.500 C 256.805 382.745, 256.943 382.946, 256.970 386.139 C 257.012 391.158, 254.434 393.998, 249.202 394.700 C 243.895 395.412, 244.172 397.389, 249.636 397.798 C 259.134 398.510, 263.002 393.783, 262.974 381.500 C 262.954 373.024, 261.863 370.442, 257.316 368.117 C 254.284 366.567, 248.035 366.790, 244.763 368.565 M 273.383 368.583 C 271.669 369.429, 269.756 371.240, 269.133 372.608 C 267.408 376.394, 267.734 383.450, 269.750 385.939 C 273.560 390.641, 285.538 390.401, 289.721 385.538 C 293.759 380.844, 292.136 371.309, 286.795 368.345 C 283.662 366.606, 277.156 366.722, 273.383 368.583 M 335 383 L 335 399 338 399 L 341 399 341 392.965 C 341 387.308, 341.121 386.995, 342.934 387.965 C 343.998 388.534, 346.944 389, 349.480 389 C 353 389, 354.653 388.438, 356.465 386.626 C 361.054 382.037, 360.723 370.528, 355.929 367.962 C 351.192 365.427, 345.681 367.726, 342.653 373.500 L 341.080 376.500 341.040 371.750 C 341.001 367.148, 340.907 367, 338 367 L 335 367 335 383 M 368.353 368.926 C 364.123 371.506, 362.334 376.835, 363.921 382.132 C 365.409 387.098, 368.654 389.202, 374.751 389.155 C 380.760 389.109, 384.338 387.783, 386.399 384.841 C 388.342 382.067, 388.499 375.642, 386.670 373.813 C 385.938 373.081, 385.517 371.950, 385.733 371.300 C 386.339 369.482, 380.599 367, 375.800 367.004 C 373.327 367.006, 370.163 367.823, 368.353 368.926 M 393 378 L 393 389 395.800 389 C 398.412 389, 398.682 388.604, 399.815 383.115 C 401.699 373.993, 406.465 369.263, 409 374 C 411.383 378.453, 415.923 374.496, 413.662 369.937 C 411.169 364.909, 403.234 366.946, 400.459 373.325 L 399.078 376.500 399.039 371.750 C 399.001 367.148, 398.907 367, 396 367 L 393 367 393 378 M 249.851 372.201 C 244.882 373.886, 243.549 382.618, 247.905 384.949 C 250.365 386.265, 254.512 383.135, 255.435 379.266 C 255.798 377.745, 256.305 375.788, 256.562 374.917 C 257.219 372.690, 253.203 371.065, 249.851 372.201 M 279 371.778 C 273.585 373.522, 271.933 381.600, 276.394 384.523 C 279.262 386.402, 283.602 385.612, 285.026 382.951 C 288.139 377.135, 284.325 370.063, 279 371.778 M 374.028 372.181 C 370.800 373.381, 370.034 374.719, 370.015 379.193 C 370.004 381.887, 370.601 383.308, 372.223 384.443 C 375.272 386.579, 376.685 386.406, 379.545 383.545 C 385.118 377.973, 381.041 369.576, 374.028 372.181 M 345.582 374.234 C 343.229 377.825, 341.639 383.049, 342.626 383.947 C 344.335 385.501, 348.695 385.943, 350.342 384.728 C 352.466 383.161, 353.833 378.230, 353.037 375 C 352.169 371.477, 347.690 371.017, 345.582 374.234" stroke="none" fill="#000000" fill-rule="evenodd"/>
</svg>